<!-- Generated by IcoMoon.io -->
<svg version="1.1" xmlns="http://www.w3.org/2000/svg" width="1024" height="1024" viewBox="0 0 1024 1024">
<title></title>
<g id="icomoon-ignore">
</g>
<path fill="#fff" d="M562.741 141.817c-17.044-0.912-33.832-1.402-50.295-1.402-23.514 0-47.73 0.999-72.396 2.805l-24.485 2.048c-1.868-8.249-4.216-16.153-6.987-23.722l-3.791-9.51c-20.103-46.512-57.131-77.193-100.465-80.974-65.157-5.753-124.484 52.024-141.253 131.341l-1.488 7.741c-1.029 5.978-1.847 12.068-2.389 18.271-0.090 1-0.147 2.006-0.187 3.006l-0.070 1.063c-0.083 1.339-0.111 2.548-0.174 3.846-8.909 2.66-17.117 5.196-24.632 7.585l-20.53 6.722c-18.162 6.126-29.018 10.292-30.852 11.006l-31.068 12.027v33.312c0 18.187-0.368 36.625-0.765 56.138l-0.034 2.306c-2.173 105.944-4.638 226.019 50.619 342.783 63.68 134.561 192.325 238.066 393.274 316.435l17.674 6.888 17.673-6.888c200.673-78.263 329.101-181.623 392.616-315.999 55.124-116.616 52.575-236.517 50.325-342.296l-0.027-1.576c-0.424-20.097-0.813-39.075-0.813-57.791v-33.242l-31.007-12.083c-2.66-1.034-22.882-8.806-55.501-19.111l-24.673-7.542c-0.083-1.479-0.111-2.875-0.23-4.396-0.027-0.811-0.082-1.624-0.138-2.166-0.583-6.673-1.493-13.228-2.653-19.666l-1.523-7.677c-17.12-78.657-76.085-135.79-140.968-130.037-43.15 3.769-80.112 34.29-100.276 80.547l-3.807 9.459c-2.791 7.569-5.167 15.48-7.062 23.736-8.236-0.757-16.389-1.382-24.514-1.937l-17.127-1.048z"></path>
<path fill="#00a3fe" d="M715.534 31.063c66.979-5.937 127.652 55.138 142.492 137.714l9.153 2.694c5.819 1.722 11.368 3.389 16.667 5.035-12.34-97.673-79.479-170.138-159.284-170.138-3.701 0-7.437 0.16-11.139 0.472-57.548 5.035-105.576 48.257-126.916 112.145 8.264 0.597 16.576 1.299 24.944 2.083 19.069-51.527 58.055-85.985 104.083-90.006z"></path>
<path fill="#00a3fe" d="M161.586 170.146c14.43-83.256 75.479-145.020 142.742-139.082 46.222 4.035 85.27 38.673 104.256 90.485 8.354-0.826 16.66-1.576 24.889-2.215-21.264-64.083-69.319-107.444-127.034-112.492-3.687-0.312-7.43-0.472-11.118-0.472-80.187 0-147.568 73.173-159.45 171.52 5.312-1.653 10.917-3.347 16.805-5.097l8.91-2.646z"></path>
<path fill="#00a3fe" d="M440.057 143.222c24.666-1.806 48.882-2.806 72.395-2.806 21.951 0 44.479 0.875 67.423 2.451l0.556-2.465c1.674-7.396 3.757-14.5 6.076-21.417-25.222-1.847-49.979-2.875-74.055-2.875-25.632 0-52.027 1.139-78.979 3.222 2.333 7.028 4.437 14.215 6.090 21.715l0.493 2.174z"></path>
<path fill="#00a3fe" d="M997.372 325.853l-0.028-1.562c-0.424-19.979-0.812-38.847-0.812-57.305v-49.861l-46.507-18.118c-2.972-1.167-27.416-10.555-66.18-22.5 0.41 3.243 0.764 6.521 1.049 9.819 0.062 0.653 0.146 1.91 0.201 3.16l-0.042-0.597c0.354 4.722 0.556 9.25 0.667 13.66 32.618 10.305 52.84 18.076 55.5 19.111l31.007 12.083v33.243c0 18.715 0.389 37.694 0.812 57.791l0.028 1.576c2.25 105.777 4.799 225.679-50.326 342.296-63.513 134.374-191.943 237.734-392.615 315.998l-17.673 6.889-17.673-6.889c-200.95-78.367-329.595-181.874-393.275-316.435-55.257-116.763-52.791-236.838-50.618-342.782l0.035-2.306c0.396-19.514 0.764-37.951 0.764-56.138v-33.312l31.069-12.028c2.444-0.951 20.93-8.042 51.382-17.729 0.083-4.187 0.243-8.493 0.569-13.104 0.083-1.896 0.16-3.215 0.285-4.542 0.243-2.806 0.556-5.604 0.882-8.382-36.611 11.368-59.152 20.021-61.902 21.090l-46.59 18.055v49.951c0 17.944-0.368 36.271-0.75 55.666l-0.049 2.278c-4.326 210.693-10.236 499.225 459.371 682.37l26.486 10.333 26.521-10.333c469.003-182.915 462.885-471.066 458.413-681.446z"></path>
<path fill="#00a3fe" d="M579.875 142.868c8.125 0.556 16.278 1.181 24.514 1.937 1.896-8.257 4.271-16.167 7.062-23.736-8.368-0.785-16.68-1.486-24.944-2.083-2.319 6.917-4.403 14.021-6.076 21.417l-0.556 2.465z"></path>
<path fill="#00a3fe" d="M134.705 190.812c-0.326 4.611-0.486 8.917-0.569 13.104 7.514-2.389 15.722-4.924 24.632-7.583 0.062-1.299 0.090-2.507 0.174-3.847l0.069-1.062c0.042-1 0.097-2.007 0.187-3.007 0.542-6.201 1.361-12.292 2.389-18.271l-8.91 2.646c-5.889 1.75-11.493 3.444-16.805 5.097-0.326 2.778-0.639 5.576-0.882 8.382-0.125 1.326-0.201 2.646-0.285 4.542z"></path>
<path fill="#00a3fe" d="M415.571 145.271c8.222-0.778 16.375-1.451 24.486-2.049l-0.493-2.174c-1.653-7.5-3.757-14.687-6.090-21.715-8.229 0.639-16.535 1.389-24.889 2.215 2.771 7.569 5.118 15.472 6.986 23.722z"></path>
<path fill="#00a3fe" d="M858.026 168.778c1.16 6.437 2.069 12.993 2.653 19.667 0.056 0.542 0.111 1.354 0.139 2.167 0.118 1.521 0.146 2.917 0.229 4.396 8.854 2.618 17.090 5.139 24.673 7.542-0.111-4.41-0.312-8.937-0.667-13.66l0.042 0.597c-0.056-1.25-0.139-2.507-0.201-3.16-0.285-3.299-0.639-6.576-1.049-9.819-5.299-1.646-10.847-3.312-16.667-5.035l-9.153-2.694z"></path>
<path fill="#00a3fe" d="M717.263 126.229c-4.521-1.507-9.187-2.187-13.93-1.764-15.521 1.34-28.389 13.437-36.083 31.291 8.424 1.229 16.729 2.549 24.916 3.903 5.25-15.396 14.042-27.423 25.097-33.43z"></path>
<path fill="#00a3fe" d="M316.544 124.465c-4.743-0.424-9.41 0.257-13.924 1.764 11.243 6.111 20.18 18.417 25.389 34.201 8.187-1.382 16.479-2.722 24.903-3.986-7.667-18.229-20.66-30.611-36.368-31.979z"></path>
<path fill="#00a3fe" d="M512.452 909.439c-325.081-129.923-378.685-306.366-385.192-476.114 102.888-20.333 240.72-41.611 385.192-41.611 144.548 0 281.567 21.305 384.358 41.639-6.25 169.693-59.326 346.178-384.358 476.087zM952.247 326.783c-0.437-20.764-0.854-40.375-0.854-59.798v-19l-17.715-6.903c-3.111-1.208-32.562-12.549-79.263-26.312-0.993 29.416-8.18 57.611-20.944 81.659-5.542 10.43-11.785 19.653-18.542 27.416-8.965 10.278-38.312 41.069-68.708 41.069-32.173 0-58.256-28.958-58.256-64.687 0-34.271 24.035-62.243 54.402-64.451 1.125-3.361 2.076-6.861 2.757-10.528 0.431-2.319 0.757-4.687 1.028-7.104 0.694-6.514 0.764-13.146 0.187-19.722-0.146-1.736-0.361-3.472-0.59-5.194-0.278-2.035-0.708-4.056-1.118-6.076-68.291-14.333-149.089-25.903-232.179-25.903-85.069 0-167.908 12.125-237.394 26.93-0.326 1.687-0.681 3.382-0.924 5.076-0.215 1.681-0.437 3.403-0.583 5.153-0.569 6.528-0.514 13.104 0.174 19.569 0.264 2.472 0.583 4.903 1.021 7.257 0.687 3.694 1.639 7.215 2.764 10.611 29.868 2.792 53.319 30.528 53.319 64.381 0 35.729-26.083 62.701-58.284 62.701-30.812 0-59.347-29.632-67.583-39.083-7.174-8.236-13.729-18.069-19.465-29.201-12.014-23.319-18.854-50.43-19.965-78.59-44.319 13.174-72.222 23.833-75.249 25.014l-17.764 6.875v19.042c0 19.125-0.396 38.437-0.799 58.881-4.292 208.366-9.604 467.684 430.629 639.37l10.104 3.944 10.104-3.944c439.608-171.443 434.115-430.379 429.691-638.453z"></path>
<path fill="#00a3fe" d="M840.081 192.659c-0.069-0.799-0.069-1.604-0.153-2.417-7.118-81.729-62-143.7-122.575-138.423-45.208 3.944-80.701 44.312-92.881 98.478 14.514 1.59 28.798 3.424 42.777 5.458 7.694-17.854 20.562-29.951 36.083-31.291 4.743-0.424 9.41 0.257 13.93 1.764 16.208 5.451 30.271 22.541 37.722 45.423 2.021 6.194 3.576 12.785 4.528 19.729 0.257 1.931 0.486 3.868 0.667 5.833 0.674 7.729 0.556 15.25-0.222 22.41-0.299 2.778-0.674 5.507-1.174 8.167-1.75 9.451-4.792 17.993-8.75 25.361-5.139 9.562-11.896 17.076-19.847 21.403-4.174 2.264-8.667 3.757-13.403 4.174-2.306 0.194-4.597 0.083-6.861-0.187-2.917 6.5-4.597 13.861-4.597 21.687 0 25.771 17.903 46.757 40.069 47.27 0.271 0.014 0.542 0.056 0.826 0.056 24.035 0 46.333-19.18 58.229-32.826 6.347-7.299 11.91-15.694 16.75-24.819 11.715-22.055 18.812-48.812 19.437-77.854 0.132-6.361-0.069-12.847-0.556-19.396z"></path>
<path fill="#00a3fe" d="M302.523 51.82c-60.576-5.278-115.437 56.694-122.575 138.423-0.104 1.236-0.132 2.444-0.215 3.667-0.417 6.125-0.625 12.194-0.486 18.146 0.611 28.319 7.389 54.472 18.597 76.222 5.028 9.757 10.861 18.722 17.59 26.451 11.097 12.736 37.993 32.826 57.111 32.826 0.562 0 1.090-0.069 1.632-0.097 21.798-0.993 39.291-21.771 39.291-47.229 0-7.757-1.653-15.069-4.528-21.535-1.944 0.174-3.882 0.201-5.847 0.035-4.75-0.417-9.222-1.91-13.403-4.174-7.972-4.34-14.729-11.868-19.882-21.472-3.931-7.347-6.958-15.868-8.722-25.291-0.5-2.715-0.882-5.507-1.181-8.347-0.743-7.104-0.868-14.549-0.201-22.229 0.174-1.965 0.417-3.903 0.681-5.833 0.889-6.535 2.319-12.764 4.16-18.646 7.34-23.437 21.604-40.965 38.076-46.507 4.514-1.507 9.18-2.187 13.924-1.764 15.708 1.368 28.701 13.75 36.368 31.979 13.93-2.090 28.139-3.972 42.59-5.625-12.062-54.43-47.625-95.041-92.978-98.999z"></path>
<path fill="#00a3fe" d="M432.619 649.336v91.416c-65.263-37.014-111.68-84.798-140.714-133.124 0 0 113.999-8.75 192.964-3.118v-57.687c-76.611-5.667-218.901 5.181-218.901 5.181-4.854-14.472-8.167-28.646-9.889-42.208 54.597-11.215 126.791-11.708 228.79-11.708v-59.958c-167.79-8.465-296.213 27.666-296.213 27.666v22.257c0 127.145 129.235 306.88 299.56 350.845v-189.561h-55.597z"></path>
<path fill="#00a3fe" d="M534.278 438.13v407.073l55.611-32.715v-312.949c10.674-0.931 31.75 1.507 45.597 1.604v151.582c15.75-9.576 37.639-27.576 55.625-49.916v-99.471c33.569 2.201 57.757 5.687 77.312 8.722-5.951 76.958-46.979 138.402-133.353 210.11v71.020c111.624-85.194 189.832-170.422 189.832-304.039v-22.271c-51.611-11.187-160.388-28.75-290.623-28.75z"></path>
</svg>
