<svg xmlns="http://www.w3.org/2000/svg" width="100%" height="100%" viewBox="0 0 2480 2160" fill="none">
	<path d="M1242.6 1898.4C1864.42 1898.4 2368.5 1674.09 2368.5 1397.4C2368.5 1120.71 1864.42 896.4 1242.6 896.4C620.783 896.4 116.7 1120.71 116.7 1397.4C116.7 1674.09 620.783 1898.4 1242.6 1898.4Z" fill="#CBCBBF" stroke="black" stroke-width="2.7" stroke-miterlimit="10" stroke-linejoin="round"/>
	<path d="M1040.6 1781.3C925 1706.6 987.3 1573.6 1179.9 1484.3L1618.6 1280.7C1811.1 1191.3 2061 1179.5 2176.6 1254.2C2292.2 1328.9 2229.9 1461.9 2037.3 1551.2L1598.6 1754.8C1406.1 1844.1 1156.3 1856 1040.6 1781.3Z" fill="#042C4D" stroke="black" stroke-width="2.7" stroke-miterlimit="10" stroke-linecap="round" stroke-linejoin="round"/>
	<path d="M1107.5 1751.1C1020.7 1695 1067.5 1595.2 1212 1528.2L1697.4 1304.4C1841.9 1237.3 2029.4 1228.4 2116.2 1284.5C2203 1340.6 2156.2 1440.4 2011.7 1507.4L1526.3 1731.2C1381.8 1798.2 1194.3 1807.1 1107.5 1751.1Z" fill="#DEF0FF" stroke="black" stroke-width="2.7" stroke-miterlimit="10" stroke-linecap="round" stroke-linejoin="round"/>
	<path d="M1532.46 1237.14C1542.07 1207.1 1495.2 1165.27 1427.76 1143.69C1360.33 1122.12 1297.88 1128.98 1288.27 1159.01C1278.66 1189.05 1325.54 1230.88 1392.97 1252.46C1460.4 1274.03 1522.86 1267.17 1532.46 1237.14Z" fill="black" stroke="black" stroke-width="2.7" stroke-miterlimit="10" stroke-linecap="round" stroke-linejoin="round"/>
	<path d="M1571.7 983.9C1572.2 985.6 1572.5 987.4 1572.5 989.1C1572.5 1010.9 1530.2 1028.6 1478 1028.6C1425.8 1028.6 1383.5 1010.9 1383.5 989.1C1383.5 987.3 1383.8 985.6 1384.3 983.9C1376.7 998.5 1372.4 1015.1 1372.4 1032.7C1372.4 1071.3 1422.7 1149.8 1442.8 1180.7C1449.2 1190.6 1413 1211.5 1415.2 1232.8C1416.5 1245.6 1431.6 1264.5 1478.1 1264.5C1524.4 1264.5 1539.4 1245.6 1540.7 1232.8C1542.9 1211.5 1506.8 1190.7 1513.2 1180.8C1533.4 1150 1583.7 1071.3 1583.7 1032.6C1583.7 1015.1 1579.4 998.5 1571.7 983.9Z" fill="#DEF0FF" stroke="black" stroke-width="2.7" stroke-miterlimit="10" stroke-linecap="round" stroke-linejoin="round"/>
	<path d="M1571.7 983.9C1570.8 981.1 1569.2 978.4 1567 975.8C1553.9 960.5 1519 949.6 1478 949.6C1437 949.6 1402.1 960.5 1389 975.8C1386.8 978.4 1385.2 981.1 1384.3 983.9C1383.8 985.6 1383.5 987.4 1383.5 989.1C1383.5 1010.9 1425.8 1028.6 1478 1028.6C1530.2 1028.6 1572.5 1010.9 1572.5 989.1C1572.6 987.4 1572.3 985.6 1571.7 983.9Z" fill="#DEF0FF" stroke="black" stroke-width="2.7" stroke-miterlimit="10" stroke-linecap="round" stroke-linejoin="round"/>
	<path d="M1478.1 1028.7C1520.5 1028.7 1556.4 1017 1568.4 1000.9C1568 1000.4 1567.6 999.8 1567.1 999.3C1554 984 1519.1 973.1 1478.1 973.1C1437.1 973.1 1402.2 984 1389.1 999.3C1388.6 999.8 1388.2 1000.4 1387.8 1000.9C1399.7 1017 1435.6 1028.7 1478.1 1028.7Z" fill="black" stroke="black" stroke-width="2.7" stroke-miterlimit="10" stroke-linecap="round" stroke-linejoin="round"/>
	<path d="M1478.1 983.9C1478.1 983.9 1473.2 850.9 1617.4 792.6C1523.3 885.6 1490.3 983.9 1490.3 983.9H1478.1Z" fill="#DEF0FF" stroke="black" stroke-width="2.7" stroke-miterlimit="10" stroke-linecap="round" stroke-linejoin="round"/>
	<path d="M1510.1 998.7C1510.1 998.7 1538.2 789.2 1670.2 659.4C1507.2 762.2 1496.9 989.2 1496.9 989.2L1510.1 998.7Z" fill="#DEF0FF" stroke="black" stroke-width="2.7" stroke-miterlimit="10" stroke-linecap="round" stroke-linejoin="round"/>
	<path d="M1435.8 998.7C1435.8 998.7 1410.2 924.2 1356.6 911.6C1303 899 1242.5 912.5 1242.5 912.5C1242.5 912.5 1297.1 886.1 1357.4 888.4C1417.6 890.7 1445.7 990.7 1445.7 990.7L1435.8 998.7Z" fill="#DEF0FF" stroke="black" stroke-width="2.7" stroke-miterlimit="10" stroke-linecap="round" stroke-linejoin="round"/>
	<path d="M1466.3 988.6C1466.3 988.6 1479.9 830.9 1383.5 712.9C1425.2 860.7 1454.7 989.2 1454.7 989.2L1466.3 988.6Z" fill="#DEF0FF" stroke="black" stroke-width="2.7" stroke-miterlimit="10" stroke-linecap="round" stroke-linejoin="round"/>
	<path d="M1473.1 995C1473.1 995 1464.7 796.2 1529.1 606.8C1506.1 800.9 1489.2 995 1489.2 995H1473.1Z" fill="#DEF0FF" stroke="black" stroke-width="2.7" stroke-miterlimit="10" stroke-linecap="round" stroke-linejoin="round"/>
	<path d="M1524.3 997.8C1524.3 997.8 1534.6 936.9 1576.8 929.5C1619 922.1 1649.7 957.2 1649.7 957.2C1649.7 957.2 1609.3 904.5 1566.1 914.5C1521.8 924.7 1517.8 993.9 1517.8 993.9L1524.3 997.8Z" fill="#DEF0FF" stroke="black" stroke-width="2.7" stroke-miterlimit="10" stroke-linecap="round" stroke-linejoin="round"/>
	<path d="M1441 1008.5C1441 1008.5 1402.8 946.3 1348.9 949.8C1300.8 953 1274.6 970.3 1274.6 970.3C1274.6 970.3 1326.5 955.4 1364.9 964.8C1403.3 974.2 1422.9 1000.1 1422.9 1000.1L1441 1008.5Z" fill="#DEF0FF" stroke="black" stroke-width="2.7" stroke-miterlimit="10" stroke-linecap="round" stroke-linejoin="round"/>
	<path d="M1527.4 1003.6C1527.4 1003.6 1549.9 970.8 1591.9 981.7C1633.9 992.6 1670.2 1014 1670.2 1014C1670.2 1014 1638.7 981.8 1607.4 971.5C1576.1 961.2 1538.7 977.2 1527.4 1003.6Z" fill="#DEF0FF" stroke="black" stroke-width="2.7" stroke-miterlimit="10" stroke-linecap="round" stroke-linejoin="round"/>
	<path d="M1450.1 1008.5C1450.1 1008.5 1375.8 954.8 1329.1 1087.9C1387.8 1019.1 1403.9 1013.2 1450.1 1008.5Z" fill="#DEF0FF" stroke="black" stroke-width="2.7" stroke-miterlimit="10" stroke-linecap="round" stroke-linejoin="round"/>
	<path d="M1447.1 998.6C1447.1 998.6 1406.4 870 1346.4 811.3C1426.2 860.6 1444.6 924.4 1453.3 994.8L1447.1 998.6Z" fill="#DEF0FF" stroke="black" stroke-width="2.7" stroke-miterlimit="10" stroke-linecap="round" stroke-linejoin="round"/>
	<path d="M1456.3 1002.3C1456.3 1002.3 1437.4 885.4 1466.7 742.4C1469.6 884.5 1469.6 1000.3 1469.6 1000.3L1456.3 1002.3Z" fill="#DEF0FF" stroke="black" stroke-width="2.7" stroke-miterlimit="10" stroke-linecap="round" stroke-linejoin="round"/>
	<path d="M1483.4 1007.2C1483.4 1007.2 1478.6 844.8 1547.7 738.7C1515.5 848.9 1496 1011 1496 1011L1483.4 1007.2Z" fill="#DEF0FF" stroke="black" stroke-width="2.7" stroke-miterlimit="10" stroke-linecap="round" stroke-linejoin="round"/>
	<path d="M1507.3 1004.5C1507.3 1004.5 1543.5 1004.3 1558.1 1069.2C1564 1004.5 1532.6 997.6 1507.3 1004.5Z" fill="#DEF0FF" stroke="black" stroke-width="2.7" stroke-miterlimit="10" stroke-linecap="round" stroke-linejoin="round"/>
	<path d="M1481.5 1015.1L1457.1 1008.6C1457.1 1008.6 1431.4 1048.3 1434.1 1109.9C1460.3 1042.8 1481.5 1015.1 1481.5 1015.1Z" fill="#DEF0FF" stroke="black" stroke-width="2.7" stroke-miterlimit="10" stroke-linecap="round" stroke-linejoin="round"/>
	<path d="M1780.5 851.6C1728 843.6 1685.5 881.5 1685.5 936.1C1685.5 990.7 1728 1041.5 1780.5 1049.5L1875.5 1063.9V965C1875.5 910.3 1833 859.6 1780.5 851.6Z" fill="#DEF0FF" stroke="black" stroke-width="2.7" stroke-miterlimit="10" stroke-linecap="round" stroke-linejoin="round"/>
	<path d="M2007 683.6C2059.2 691.6 2101.5 742.3 2101.5 797C2101.5 851.6 2059.2 889.5 2007 881.5L1912.5 867.1V768.2C1912.5 713.4 1954.8 675.6 2007 683.6Z" fill="#DEF0FF" stroke="black" stroke-width="2.7" stroke-miterlimit="10" stroke-linecap="round" stroke-linejoin="round"/>
	<path d="M262.7 1334.6L812.4 1537.1C828.6 1543.1 846.6 1542.2 862.2 1534.8L1366.4 1299.4C1379.2 1293.3 1378.4 1274.8 1365 1269.9L820.8 1070.4C801.5 1063.4 780.3 1064.3 761.7 1073.1L261.2 1305.1C248.5 1311.2 249.3 1329.7 262.7 1334.6Z" fill="black" stroke="black" stroke-width="2.7" stroke-miterlimit="10" stroke-linecap="round" stroke-linejoin="round"/>
	<path d="M814.402 1248.15C832.458 1191.71 744.247 1113.05 617.377 1072.47C490.507 1031.88 373.02 1044.72 354.964 1101.16C336.907 1157.6 425.118 1236.26 551.988 1276.85C678.859 1317.44 796.345 1304.59 814.402 1248.15Z" fill="black" stroke="black" stroke-width="2.7" stroke-miterlimit="10" stroke-linecap="round" stroke-linejoin="round"/>
	<path d="M606.6 879C606.6 879 605.9 813.4 545.4 771.1C484.9 728.9 349 788.2 349 788.2C349 788.2 469.5 860.1 524.8 873.2C580.1 886.3 606.6 879 606.6 879Z" fill="white" stroke="black" stroke-width="2.7" stroke-miterlimit="10" stroke-linecap="round" stroke-linejoin="round"/>
	<path d="M675 841.3C675 841.3 702.4 758.6 683.8 682.1C665.2 605.6 529.3 545.1 529.3 545.1C529.3 545.1 561.3 668.4 577.3 703.8C593.3 739.2 675 841.3 675 841.3Z" fill="white" stroke="black" stroke-width="2.7" stroke-miterlimit="10" stroke-linecap="round" stroke-linejoin="round"/>
	<path d="M756.2 867.2C756.2 867.2 703.7 744.8 728.8 628.9C753.9 513.1 913 421.7 913 421.7C913 421.7 905.8 609.4 865.8 693.1C843 740.9 756.2 867.2 756.2 867.2Z" fill="white" stroke="black" stroke-width="2.7" stroke-miterlimit="10" stroke-linecap="round" stroke-linejoin="round"/>
	<path d="M540.3 1046.7C540.3 1046.7 565 1203.6 571.6 1245.4C576.8 1278.3 632.6 1303 696.7 1303C760.8 1303 816.6 1278.3 821.8 1245.4C828.4 1203.6 853.1 1046.7 853.1 1046.7" fill="#DEF0FF"/>
	<path d="M540.3 1046.7C540.3 1046.7 565 1203.6 571.6 1245.4C576.8 1278.3 632.6 1303 696.7 1303C760.8 1303 816.6 1278.3 821.8 1245.4C828.4 1203.6 853.1 1046.7 853.1 1046.7" stroke="black" stroke-width="2.7" stroke-miterlimit="10" stroke-linecap="round" stroke-linejoin="round"/>
	<path d="M696.7 1099.5C797.768 1099.5 879.7 1057.68 879.7 1006.1C879.7 954.517 797.768 912.7 696.7 912.7C595.632 912.7 513.7 954.517 513.7 1006.1C513.7 1057.68 595.632 1099.5 696.7 1099.5Z" fill="#DEF0FF" stroke="black" stroke-width="2.7" stroke-miterlimit="10" stroke-linecap="round" stroke-linejoin="round"/>
	<path d="M696.7 1057.9C780.205 1057.9 847.9 1029.6 847.9 994.7C847.9 959.796 780.205 931.5 696.7 931.5C613.195 931.5 545.5 959.796 545.5 994.7C545.5 1029.6 613.195 1057.9 696.7 1057.9Z" fill="black" stroke="black" stroke-width="2.7" stroke-miterlimit="10" stroke-linecap="round" stroke-linejoin="round"/>
	<path d="M747.1 1001.7C747.1 1001.7 750.5 685.9 853.7 519.5" stroke="black" stroke-width="2.7" stroke-miterlimit="10" stroke-linecap="round" stroke-linejoin="round"/>
	<path d="M683.8 972.9C683.8 972.9 687.3 778.4 623.3 668.8" stroke="black" stroke-width="2.7" stroke-miterlimit="10" stroke-linecap="round" stroke-linejoin="round"/>
	<path d="M653.6 1012.8C653.6 1012.8 662.9 873.2 510.7 809.9" stroke="black" stroke-width="2.7" stroke-miterlimit="10" stroke-linecap="round" stroke-linejoin="round"/>
	<path d="M825.7 1526.8L1317.1 1294.2C1337.7 1284.4 1350.9 1263.7 1350.9 1240.8V235.9C1350.9 212.3 1326.3 196.7 1304.9 206.8L813.5 439.4C792.9 449.2 779.7 469.9 779.7 492.8V1497.7C779.7 1521.3 804.3 1536.9 825.7 1526.8Z" fill="#DEF0FF" stroke="black" stroke-width="2.7" stroke-miterlimit="10" stroke-linecap="round" stroke-linejoin="round"/>
	<path d="M1328.6 205.2L1365.7 219.7L1317.5 234.2" fill="#DEF0FF"/>
	<path d="M1328.6 205.2L1365.7 219.7L1317.5 234.2" stroke="black" stroke-width="2.7" stroke-miterlimit="10" stroke-linecap="round" stroke-linejoin="round"/>
	<path d="M797.2 1526.3L836.3 1541.8L836.5 1497.2" fill="#DEF0FF"/>
	<path d="M797.2 1526.3L836.3 1541.8L836.5 1497.2" stroke="black" stroke-width="2.7" stroke-miterlimit="10" stroke-linecap="round" stroke-linejoin="round"/>
	<path d="M860.9 1540.5L1352.3 1307.9C1372.9 1298.1 1386.1 1277.4 1386.1 1254.5V249.6C1386.1 226 1361.5 210.4 1340.1 220.5L848.7 453.2C828.1 463 814.9 483.7 814.9 506.6V1511.5C814.9 1535.1 839.5 1550.7 860.9 1540.5Z" fill="#C794CF" stroke="black" stroke-width="2.7" stroke-miterlimit="10" stroke-linecap="round" stroke-linejoin="round"/>
	<path d="M1138.3 366.5C1136.8 400.6 1120.5 432.6 1100.6 439.2C1082.7 445.2 1067.8 428.8 1063.8 401.5L855.6 499.3V1489.6L1345.5 1259.4V269.1L1138.3 366.5Z" fill="#83A1B5" stroke="black" stroke-width="2.7" stroke-miterlimit="10" stroke-linecap="round" stroke-linejoin="round"/>
	<path d="M1109.9 397.582C1112.4 390.205 1110.01 382.734 1104.57 380.894C1099.13 379.054 1092.7 383.543 1090.2 390.92C1087.71 398.296 1090.1 405.768 1095.54 407.608C1100.98 409.447 1107.41 404.959 1109.9 397.582Z" fill="black"/>
	<path d="M796 768.2C792.4 768.2 789.5 765.3 789.5 761.7V561.7C789.5 558.1 792.4 555.2 796 555.2C799.6 555.2 802.5 558.1 802.5 561.7V761.7C802.5 765.3 799.6 768.2 796 768.2Z" fill="#DEF0FF" stroke="black" stroke-width="2.7" stroke-miterlimit="10" stroke-linecap="round" stroke-linejoin="round"/>
	<path d="M796 846.2C792.4 846.2 789.5 843.3 789.5 839.7V795.7C789.5 792.1 792.4 789.2 796 789.2C799.6 789.2 802.5 792.1 802.5 795.7V839.7C802.5 843.3 799.6 846.2 796 846.2Z" fill="#DEF0FF" stroke="black" stroke-width="2.7" stroke-miterlimit="10" stroke-linecap="round" stroke-linejoin="round"/>
	<path d="M1185 975C1185 975 1182.5 1012.5 1171.9 1018.9C1161.3 1025.3 1146.5 1020.9 1146.5 1020.9L1146.4 978.1" fill="white"/>
	<path d="M1185 975C1185 975 1182.5 1012.5 1171.9 1018.9C1161.3 1025.3 1146.5 1020.9 1146.5 1020.9L1146.4 978.1" stroke="black" stroke-width="2.7" stroke-miterlimit="10" stroke-linecap="round" stroke-linejoin="round"/>
	<path d="M1145.9 742.1C1145.9 742.1 1160.7 750.2 1169.6 782.7C1174.9 801.9 1185 975.1 1185 975.1C1185 975.1 1168.4 988.5 1146.4 984.7" fill="#C794CF"/>
	<path d="M1145.9 742.1C1145.9 742.1 1160.7 750.2 1169.6 782.7C1174.9 801.9 1185 975.1 1185 975.1C1185 975.1 1168.4 988.5 1146.4 984.7" stroke="black" stroke-width="2.7" stroke-miterlimit="10" stroke-linecap="round" stroke-linejoin="round"/>
	<path d="M1118.8 1318.5L1099.5 1327.3C1093.6 1330 1087 1330.3 1081.2 1328L1031.8 1308.2C1025.8 1305.8 1024.9 1297.4 1030.2 1292.9L1055.5 1271.1L1119.7 1310.2C1122.9 1311.9 1122.3 1316.8 1118.8 1318.5Z" fill="#C794CF" stroke="black" stroke-width="2.7" stroke-miterlimit="10" stroke-linecap="round" stroke-linejoin="round"/>
	<path d="M1197.4 1281.7L1178.1 1290.5C1172.2 1293.2 1165.6 1293.5 1159.8 1291.2L1110.4 1271.4C1104.4 1269 1103.5 1260.6 1108.8 1256.1L1134.1 1234.3L1198.3 1273.4C1201.5 1275.1 1201 1280.1 1197.4 1281.7Z" fill="#C794CF" stroke="black" stroke-width="2.7" stroke-miterlimit="10" stroke-linecap="round" stroke-linejoin="round"/>
	<path d="M1029.6 938L1030.3 1292.7C1063.6 1299.5 1083.1 1287.6 1083.1 1287.6L1082.5 966.4L1110.2 953.7L1110.8 1255.9C1110.8 1255.9 1139.2 1263.1 1161.8 1251.9L1161.1 883.6L1029.6 938Z" fill="black" stroke="black" stroke-width="2.7" stroke-miterlimit="10" stroke-linecap="round" stroke-linejoin="round"/>
	<path d="M1161 883.7C1161 883.7 1097.4 939.7 1029.6 938C1029.5 880.8 1029.4 807.3 1029.4 807.3C1029.3 761.2 1160.7 684 1160.9 782.7C1160.9 827 1161 883.7 1161 883.7Z" fill="#C794CF" stroke="black" stroke-width="2.7" stroke-miterlimit="10" stroke-linecap="round" stroke-linejoin="round"/>
	<path d="M1135.43 703.076C1136.35 676.307 1120.73 654.039 1100.52 653.34C1080.32 652.641 1063.2 673.776 1062.27 700.546C1061.34 727.315 1076.97 749.583 1097.17 750.282C1117.37 750.981 1134.5 729.846 1135.43 703.076Z" fill="white" stroke="black" stroke-width="2.7" stroke-miterlimit="10" stroke-linecap="round" stroke-linejoin="round"/>
	<path d="M1108.6 701.7L1120.2 708C1123.3 709.7 1124.3 713.8 1122.4 717.1C1120.5 720.4 1116.5 721.7 1113.5 720.1L1102.3 714.2" fill="white"/>
	<path d="M1108.6 701.7L1120.2 708C1123.3 709.7 1124.3 713.8 1122.4 717.1C1120.5 720.4 1116.5 721.7 1113.5 720.1L1102.3 714.2" stroke="black" stroke-width="2.7" stroke-miterlimit="10" stroke-linecap="round" stroke-linejoin="round"/>
	<path d="M1093.46 698.67C1093.54 696.518 1092.62 694.738 1091.4 694.694C1090.19 694.65 1089.14 696.359 1089.06 698.512C1088.98 700.664 1089.91 702.444 1091.12 702.488C1092.33 702.532 1093.38 700.823 1093.46 698.67Z" fill="black" stroke="black" stroke-width="2.7" stroke-miterlimit="10" stroke-linecap="round" stroke-linejoin="round"/>
	<path d="M1121.15 693.132C1121.22 690.979 1120.3 689.199 1119.09 689.155C1117.87 689.111 1116.83 690.82 1116.75 692.973C1116.67 695.125 1117.59 696.906 1118.81 696.949C1120.02 696.993 1121.07 695.284 1121.15 693.132Z" fill="black" stroke="black" stroke-width="2.7" stroke-miterlimit="10" stroke-linecap="round" stroke-linejoin="round"/>
	<path d="M1116.3 720.8C1116.3 720.8 1104.9 736.7 1085.7 723.2" stroke="black" stroke-width="2.7" stroke-miterlimit="10" stroke-linecap="round" stroke-linejoin="round"/>
	<path d="M1063.8 716.7C1063.8 716.7 1047.2 665.3 1053.1 648.1C1063.8 617.1 1123.2 644.6 1126.5 616.3C1149.1 632.8 1130.5 676.8 1130.5 676.8C1130.5 676.8 1123.1 658 1104.2 660.9C1065.1 666.9 1063.8 716.7 1063.8 716.7Z" fill="#B118C8" stroke="black" stroke-width="2.7" stroke-miterlimit="10" stroke-linecap="round" stroke-linejoin="round"/>
	<path d="M1072.6 752.2C1072.6 752.2 1007.2 784.8 974.601 787.7C970.401 788.1 995.001 681.1 995.001 681.1C995.001 681.1 982.701 693.7 959.701 685.7C939.001 739.6 919.501 829.6 942.401 833C973.201 837.6 1057.6 810.1 1057.6 810.1" fill="#C794CF"/>
	<path d="M1072.6 752.2C1072.6 752.2 1007.2 784.8 974.601 787.7C970.401 788.1 995.001 681.1 995.001 681.1C995.001 681.1 982.701 693.7 959.701 685.7C939.001 739.6 919.501 829.6 942.401 833C973.201 837.6 1057.6 810.1 1057.6 810.1" stroke="black" stroke-width="2.7" stroke-miterlimit="10" stroke-linecap="round" stroke-linejoin="round"/>
	<path d="M959.601 685.7L966.601 615.8C966.801 614.1 967.901 612.7 969.501 612.1C972.401 611.1 975.401 613.3 975.301 616.4L974.501 634.9L981.301 607.5C981.701 605.9 983.001 604.6 984.601 604.1C987.901 603.2 991.101 606 990.501 609.4L986.401 632.4L997.101 603.7C998.001 601.4 1000.4 600.1 1002.8 600.7C1005.6 601.4 1007.1 604.3 1006.2 607L995.801 636L1010.8 609.9C1012.2 607.5 1015.4 606.8 1017.6 608.5C1019.4 609.9 1019.9 612.3 1018.9 614.3L1001.9 646.9L1001.6 656.9L1010.2 643.2C1010.9 642.1 1012.1 641.4 1013.4 641.3C1016.4 641.1 1018.6 644 1017.6 646.9L1014.1 656.6C1013.2 659.1 1011.9 661.3 1010.2 663.3L994.901 681C994.901 681.1 983.701 693.9 959.601 685.7Z" fill="white" stroke="black" stroke-width="2.7" stroke-miterlimit="10" stroke-linecap="round" stroke-linejoin="round"/>
	<path d="M1999.8 1058.1L2010.6 988.7C2010.9 987 2010.1 985.4 2008.8 984.4C2006.3 982.7 2002.8 984.1 2002.2 987.1L1998.3 1005.2L1998.6 977C1998.6 975.3 1997.7 973.8 1996.3 972.9C1993.4 971.2 1989.6 973.2 1989.4 976.6L1987.6 999.9L1984.5 969.5C1984.3 967.1 1982.2 965.2 1979.8 965.2C1977 965.2 1974.7 967.6 1975 970.5L1977.6 1001.1L1969.8 972.1C1969.1 969.4 1966.2 968 1963.7 969.1C1961.6 970 1960.5 972.2 1961 974.4L1969.1 1010.2L1966.9 1020L1962.1 1004.6C1961.7 1003.3 1960.7 1002.3 1959.5 1001.9C1956.7 1000.9 1953.8 1003.2 1954.1 1006.2L1955 1016.4C1955.2 1019 1955.9 1021.5 1957.1 1023.9L1967.3 1044.8C1967.2 1045 1974.7 1060.1 1999.8 1058.1Z" fill="white" stroke="black" stroke-width="2.7" stroke-miterlimit="10" stroke-linecap="round" stroke-linejoin="round"/>
	<path d="M1955 1269.7C1976.4 1249.6 2025.9 1181.2 2028 1161.2C2029.8 1144 2003 1040.1 2003 1040.1C2003 1040.1 1993.1 1040.5 1969.9 1048.4C1978.5 1080.7 1990.2 1149.9 1990.2 1149.9C1990.2 1149.9 1961 1195.9 1938.7 1212.6" fill="#C794CF"/>
	<path d="M1955 1269.7C1976.4 1249.6 2025.9 1181.2 2028 1161.2C2029.8 1144 2003 1040.1 2003 1040.1C2003 1040.1 1993.1 1040.5 1969.9 1048.4C1978.5 1080.7 1990.2 1149.9 1990.2 1149.9C1990.2 1149.9 1961 1195.9 1938.7 1212.6" stroke="black" stroke-width="2.7" stroke-miterlimit="10" stroke-linecap="round" stroke-linejoin="round"/>
	<path d="M1681.2 1490.2L1975.1 1599.1L1796.8 1685.8L1543.8 1592C1501.2 1576.2 1498.3 1517 1539.2 1497.1C1583.6 1475.6 1634.9 1473.1 1681.2 1490.2Z" fill="black" stroke="black" stroke-width="2.7" stroke-miterlimit="10" stroke-linecap="round" stroke-linejoin="round"/>
	<path d="M2017.1 1623L1945.8 1605.7L1922.9 1615.5L2007.1 1624L2017.1 1623Z" fill="black" stroke="black" stroke-width="2.7" stroke-miterlimit="10" stroke-linecap="round" stroke-linejoin="round"/>
	<path d="M1843.3 1699.9L1802.3 1672L1821 1663.3L1853.4 1698.7L1843.3 1699.9Z" fill="black" stroke="black" stroke-width="2.7" stroke-miterlimit="10" stroke-linecap="round" stroke-linejoin="round"/>
	<path d="M1703.6 1635.1C1697.8 1637.9 1691.4 1638.3 1685.7 1636.3L1635.3 1617C1629.4 1614.8 1629.6 1606.4 1635.5 1603L1650.6 1594.4C1653.7 1592.6 1657.3 1591.9 1660.6 1592.5L1707.1 1600.2L1722.2 1615.5C1725.5 1618.8 1724.1 1624.8 1719.5 1627.1L1703.6 1635.1Z" fill="white" stroke="black" stroke-width="2.7" stroke-miterlimit="10" stroke-linecap="round" stroke-linejoin="round"/>
	<path d="M1783.2 1598.4C1777.4 1601.2 1771 1601.6 1765.3 1599.6L1714.9 1580.3C1709 1578.1 1709.2 1569.7 1715.1 1566.3L1730.2 1557.7C1733.3 1555.9 1736.9 1555.2 1740.2 1555.8L1786.7 1563.5L1801.8 1578.8C1805.1 1582.1 1803.7 1588.1 1799.1 1590.4L1783.2 1598.4Z" fill="white" stroke="black" stroke-width="2.7" stroke-miterlimit="10" stroke-linecap="round" stroke-linejoin="round"/>
	<path d="M1799.1 1431.6V1575.9C1777 1587.2 1749.3 1581.4 1749.3 1581.4V1410.3C1749.3 1390.2 1768.6 1375.8 1787.9 1381.5L1933.6 1424.6" fill="#83A1B5"/>
	<path d="M1799.1 1431.6V1575.9C1777 1587.2 1749.3 1581.4 1749.3 1581.4V1410.3C1749.3 1390.2 1768.6 1375.8 1787.9 1381.5L1933.6 1424.6" stroke="black" stroke-width="2.7" stroke-miterlimit="10" stroke-linecap="round" stroke-linejoin="round"/>
	<path d="M1670.6 1432.6V1618.8C1703.1 1624.1 1722.2 1612.2 1722.2 1612.2V1437" fill="#83A1B5"/>
	<path d="M1670.6 1432.6V1618.8C1703.1 1624.1 1722.2 1612.2 1722.2 1612.2V1437" stroke="black" stroke-width="2.7" stroke-miterlimit="10" stroke-linecap="round" stroke-linejoin="round"/>
	<path d="M1888.2 1420.3L1888 1576C1888 1576 1884.8 1578.2 1879.4 1576L1870.7 1425.4" fill="#83A1B5"/>
	<path d="M1888.2 1420.3L1888 1576C1888 1576 1884.8 1578.2 1879.4 1576L1870.7 1425.4" stroke="black" stroke-width="2.7" stroke-miterlimit="10" stroke-linecap="round" stroke-linejoin="round"/>
	<path d="M1729.5 1499.6L1712.4 1648.9C1712.4 1648.9 1715.6 1651.1 1721 1648.9L1747 1504.8" fill="#83A1B5"/>
	<path d="M1729.5 1499.6L1712.4 1648.9C1712.4 1648.9 1715.6 1651.1 1721 1648.9L1747 1504.8" stroke="black" stroke-width="2.7" stroke-miterlimit="10" stroke-linecap="round" stroke-linejoin="round"/>
	<path d="M2000.3 1473.9L2017.4 1623.2C2017.4 1623.2 2014.2 1625.4 2008.8 1623.2L1982.8 1479.1" fill="#83A1B5"/>
	<path d="M2000.3 1473.9L2017.4 1623.2C2017.4 1623.2 2014.2 1625.4 2008.8 1623.2L1982.8 1479.1" stroke="black" stroke-width="2.7" stroke-miterlimit="10" stroke-linecap="round" stroke-linejoin="round"/>
	<path d="M1843.3 1542.6L1843.5 1698.3C1843.5 1698.3 1846.7 1700.5 1852.1 1698.3L1860.8 1547.7" fill="#83A1B5"/>
	<path d="M1843.3 1542.6L1843.5 1698.3C1843.5 1698.3 1846.7 1700.5 1852.1 1698.3L1860.8 1547.7" stroke="black" stroke-width="2.7" stroke-miterlimit="10" stroke-linecap="round" stroke-linejoin="round"/>
	<path d="M1873 1414.8L1719.6 1488.9L1858.8 1540.5L2012.2 1466.4L1873 1414.8Z" fill="white" stroke="black" stroke-width="2.7" stroke-miterlimit="10" stroke-linecap="round" stroke-linejoin="round"/>
	<path d="M1719.6 1488.9V1498.4L1858.8 1550V1540.5L1719.6 1488.9Z" fill="#83A1B5" stroke="black" stroke-width="2.7" stroke-miterlimit="10" stroke-linecap="round" stroke-linejoin="round"/>
	<path d="M1858.8 1550L2012.2 1475.9V1466.4L1858.8 1540.5V1550Z" fill="white" stroke="black" stroke-width="2.7" stroke-miterlimit="10" stroke-linecap="round" stroke-linejoin="round"/>
	<path d="M1708.5 1458.6L1816.4 1495C1844 1504.3 1874.2 1502.3 1900.4 1489.4L1929 1475.3C1943.4 1468.2 1952.6 1453.4 1952.6 1437.3V1363.6L1808.6 1431.6L1717.1 1401.8C1694.2 1394.3 1670.6 1411.4 1670.6 1435.6V1449.7" fill="#83A1B5"/>
	<path d="M1708.5 1458.6L1816.4 1495C1844 1504.3 1874.2 1502.3 1900.4 1489.4L1929 1475.3C1943.4 1468.2 1952.6 1453.4 1952.6 1437.3V1363.6L1808.6 1431.6L1717.1 1401.8C1694.2 1394.3 1670.6 1411.4 1670.6 1435.6V1449.7" stroke="black" stroke-width="2.7" stroke-miterlimit="10" stroke-linecap="round" stroke-linejoin="round"/>
	<path d="M1952.1 1393.6C1952.1 1393.6 1889.9 1432.2 1823.6 1432.9C1823.6 1378.9 1823.6 1295.5 1823.6 1295.5C1823.6 1252 1952.1 1174.7 1952.1 1267.8C1952.1 1309.6 1952.1 1393.6 1952.1 1393.6Z" fill="#C794CF" stroke="black" stroke-width="2.7" stroke-miterlimit="10" stroke-linecap="round" stroke-linejoin="round"/>
	<path d="M1656 1413L1672.9 1401.8C1677.2 1399 1682 1397.1 1687 1396.4L1724.7 1391.2C1724.7 1391.2 1735.1 1395.1 1733.5 1405.5C1731.9 1415.9 1718.3 1424.8 1718.3 1424.8L1692.9 1427.9L1671.2 1442.2C1669 1443.7 1666.2 1443.6 1664.5 1442L1654.2 1432.2C1652.4 1430.5 1651.6 1428.1 1651.8 1425.6L1652.4 1418.9C1652.5 1416.6 1653.9 1414.4 1656 1413Z" fill="white" stroke="black" stroke-width="2.7" stroke-miterlimit="10" stroke-linecap="round" stroke-linejoin="round"/>
	<path d="M1865.5 1308.6C1857.3 1351 1852.5 1357.6 1838.7 1382.9C1828 1402.5 1826.5 1417.6 1718.1 1424.8C1718.1 1424.8 1731.5 1405.6 1724.6 1391.2C1787.5 1379.5 1800.8 1368.3 1800.8 1368.3L1824.1 1289.4" fill="#C794CF"/>
	<path d="M1865.5 1308.6C1857.3 1351 1852.5 1357.6 1838.7 1382.9C1828 1402.5 1826.5 1417.6 1718.1 1424.8C1718.1 1424.8 1731.5 1405.6 1724.6 1391.2C1787.5 1379.5 1800.8 1368.3 1800.8 1368.3L1824.1 1289.4" stroke="black" stroke-width="2.7" stroke-miterlimit="10" stroke-linecap="round" stroke-linejoin="round"/>
	<path d="M1651.8 1424.6L1677.5 1407.4" stroke="black" stroke-width="2.7" stroke-miterlimit="10" stroke-linecap="round" stroke-linejoin="round"/>
	<path d="M1655.6 1433.6L1681.5 1416" stroke="black" stroke-width="2.7" stroke-miterlimit="10" stroke-linecap="round" stroke-linejoin="round"/>
	<path d="M1661.9 1439.6L1681.1 1426.4" stroke="black" stroke-width="2.7" stroke-miterlimit="10" stroke-linecap="round" stroke-linejoin="round"/>
	<path d="M1679.4 1397.5L1661.8 1400.8L1662.2 1402C1662.8 1404 1664.4 1405.4 1666.6 1406L1679.4 1397.5Z" fill="white" stroke="black" stroke-width="2.7" stroke-miterlimit="10" stroke-linecap="round" stroke-linejoin="round"/>
	<path d="M1825.3 1260.8C1825.3 1260.8 1795.8 1266.8 1802.6 1233.3C1809.4 1199.8 1820.5 1191.3 1812.1 1174.5C1803.6 1157.7 1812.4 1126 1848.5 1117.6C1884.6 1109.2 1898.8 1094 1927.8 1109C1956.8 1124 1926.9 1170.3 1952 1172.4C1977.1 1174.5 1995.8 1176.5 2000.9 1198.6C2012.1 1246.9 1974.1 1255.3 1990.9 1282.2C2007.7 1309.1 1975.3 1352.6 1938.2 1337.4C1920.6 1330.2 1865.9 1344 1867.5 1310.6C1869.1 1277.1 1862.7 1261.9 1825.3 1260.8Z" fill="#B118C8" stroke="black" stroke-width="2.7" stroke-miterlimit="10" stroke-linecap="round" stroke-linejoin="round"/>
	<path d="M1868.9 1523.2C1866.1 1523.3 1864.1 1521 1864.4 1518.2L1878.5 1382.1L1888.6 1381.9L1874.5 1518C1874.2 1520.8 1871.7 1523.1 1868.9 1523.2Z" fill="#83A1B5" stroke="black" stroke-width="2.7" stroke-miterlimit="10" stroke-linecap="round" stroke-linejoin="round"/>
	<path d="M1971.8 1473.1C1969 1473.2 1967 1470.9 1967.3 1468.1L1981.4 1332L1991.5 1331.8L1977.4 1467.9C1977.2 1470.7 1974.6 1473.1 1971.8 1473.1Z" fill="#83A1B5" stroke="black" stroke-width="2.7" stroke-miterlimit="10" stroke-linecap="round" stroke-linejoin="round"/>
	<path d="M2018 1228.5L1864.6 1302.5L1876.6 1307.6L2030 1233.5L2018 1228.5Z" fill="white" stroke="black" stroke-width="2.7" stroke-miterlimit="10" stroke-linecap="round" stroke-linejoin="round"/>
	<path d="M1864.6 1302.5L1855.6 1391.8L1867.6 1396.9L1876.6 1307.6L1864.6 1302.5Z" fill="#83A1B5" stroke="black" stroke-width="2.7" stroke-miterlimit="10" stroke-linecap="round" stroke-linejoin="round"/>
	<path d="M1867.6 1396.9L2021 1322.8L2030 1233.5L1876.6 1307.6L1867.6 1396.9Z" fill="white" stroke="black" stroke-width="2.7" stroke-miterlimit="10" stroke-linecap="round" stroke-linejoin="round"/>
	<path d="M1902.5 1487.6C1902.5 1487.6 1913.5 1482.6 1913.5 1454.6" stroke="black" stroke-width="2.7" stroke-miterlimit="10" stroke-linecap="round" stroke-linejoin="round"/>
	<path d="M1275.4 559.8C1265.2 547.6 1259.1 531.4 1259.1 513.2C1259.1 470.1 1293 431.6 1334.9 427.3L1504.2 409.9C1546.1 405.6 1580 437.1 1580 480.2C1580 523.3 1546.1 561.8 1504.2 566.1L1359.2 581L1334.9 583.5L1237.9 593.5L1275.4 559.8Z" fill="#B118C8" stroke="black" stroke-width="2.7" stroke-miterlimit="10" stroke-linecap="round" stroke-linejoin="round"/>
	<path d="M1484.77 499.444C1489.84 492.274 1488.72 482.765 1482.27 478.206C1475.82 473.648 1466.49 475.766 1461.42 482.936C1456.35 490.107 1457.47 499.616 1463.92 504.174C1470.37 508.733 1479.7 506.615 1484.77 499.444Z" fill="white" stroke="black" stroke-width="2.7" stroke-miterlimit="10" stroke-linecap="round" stroke-linejoin="round"/>
	<path d="M1431.09 505.01C1436.16 497.839 1435.04 488.33 1428.59 483.772C1422.14 479.213 1412.8 481.331 1407.74 488.502C1402.67 495.673 1403.79 505.181 1410.24 509.74C1416.68 514.298 1426.02 512.181 1431.09 505.01Z" fill="white" stroke="black" stroke-width="2.7" stroke-miterlimit="10" stroke-linecap="round" stroke-linejoin="round"/>
	<path d="M1377.46 510.494C1382.53 503.323 1381.41 493.814 1374.96 489.256C1368.51 484.697 1359.18 486.815 1354.11 493.986C1349.04 501.157 1350.16 510.665 1356.61 515.224C1363.06 519.782 1372.4 517.665 1377.46 510.494Z" fill="white" stroke="black" stroke-width="2.7" stroke-miterlimit="10" stroke-linecap="round" stroke-linejoin="round"/>
	<path d="M2043.61 838.904C2069.35 820.406 2073.06 781.523 2051.89 752.056C2030.71 722.589 1992.68 713.696 1966.94 732.194C1941.19 750.691 1937.49 789.574 1958.66 819.041C1979.83 848.509 2017.86 857.401 2043.61 838.904Z" fill="white" stroke="black" stroke-width="2.7" stroke-miterlimit="10" stroke-linecap="round" stroke-linejoin="round"/>
	<path d="M1987.2 779.889C1989.46 779.811 1991.16 775.721 1990.99 770.753C1990.81 765.785 1988.84 761.822 1986.58 761.9C1984.31 761.978 1982.62 766.068 1982.79 771.035C1982.96 776.003 1984.94 779.967 1987.2 779.889Z" fill="black" stroke="black" stroke-width="2.7" stroke-miterlimit="10" stroke-linecap="round" stroke-linejoin="round"/>
	<path d="M2024.1 784.789C2026.36 784.711 2028.06 780.62 2027.88 775.653C2027.71 770.685 2025.74 766.722 2023.48 766.8C2021.21 766.878 2019.52 770.968 2019.69 775.935C2019.86 780.903 2021.83 784.867 2024.1 784.789Z" fill="black" stroke="black" stroke-width="2.7" stroke-miterlimit="10" stroke-linecap="round" stroke-linejoin="round"/>
	<path d="M2043.6 790.7C2043.6 812.6 2026.5 828 2005.4 825.2C1984.3 822.4 1967.2 802.4 1967.2 780.6" stroke="black" stroke-width="2.7" stroke-miterlimit="10" stroke-linecap="round" stroke-linejoin="round"/>
	<path d="M1815.97 999.759C1841.71 981.262 1845.42 942.379 1824.25 912.912C1803.07 883.444 1765.04 874.552 1739.3 893.05C1713.55 911.547 1709.84 950.43 1731.02 979.897C1752.19 1009.36 1790.22 1018.26 1815.97 999.759Z" fill="white" stroke="black" stroke-width="2.7" stroke-miterlimit="10" stroke-linecap="round" stroke-linejoin="round"/>
	<path d="M1759.5 940.888C1761.76 940.81 1763.46 936.72 1763.29 931.752C1763.12 926.784 1761.14 922.821 1758.88 922.899C1756.62 922.977 1754.92 927.067 1755.09 932.035C1755.26 937.002 1757.24 940.966 1759.5 940.888Z" fill="black" stroke="black" stroke-width="2.7" stroke-miterlimit="10" stroke-linecap="round" stroke-linejoin="round"/>
	<path d="M1796.4 945.788C1798.66 945.71 1800.36 941.619 1800.19 936.652C1800.02 931.684 1798.04 927.721 1795.78 927.799C1793.52 927.877 1791.82 931.967 1791.99 936.934C1792.16 941.902 1794.14 945.866 1796.4 945.788Z" fill="black" stroke="black" stroke-width="2.7" stroke-miterlimit="10" stroke-linecap="round" stroke-linejoin="round"/>
	<path d="M1814 959.5C1793.9 977.6 1761.4 973.3 1741.3 949.8" stroke="black" stroke-width="2.7" stroke-miterlimit="10" stroke-linecap="round" stroke-linejoin="round"/>
	<path d="M1766 967.4V975.4C1766 981.9 1771.1 987.8 1777.3 988.7C1783.6 989.5 1788.6 984.9 1788.6 978.5V970.6C1788.7 970.5 1778.2 972.6 1766 967.4Z" fill="#B118C8" stroke="black" stroke-width="2.7" stroke-miterlimit="10" stroke-linecap="round" stroke-linejoin="round"/>
	<path d="M566.929 1549.56C621.53 1544.44 663.939 1520.54 661.653 1496.18C659.367 1471.82 613.251 1456.23 558.65 1461.35C504.05 1466.48 461.64 1490.38 463.927 1514.74C466.213 1539.1 512.328 1554.69 566.929 1549.56Z" fill="black" stroke="black" stroke-width="2.7" stroke-miterlimit="10" stroke-linecap="round" stroke-linejoin="round"/>
	<path d="M514.029 1526.17C568.629 1521.04 611.038 1497.14 608.752 1472.79C606.466 1448.43 560.35 1432.83 505.75 1437.96C451.149 1443.08 408.74 1466.98 411.026 1491.34C413.312 1515.7 459.428 1531.29 514.029 1526.17Z" fill="black" stroke="black" stroke-width="2.7" stroke-miterlimit="10" stroke-linecap="round" stroke-linejoin="round"/>
	<path d="M540.1 1423.5L404.1 1494L174 1423L382.5 1314.8L540.1 1423.5Z" fill="black" stroke="black" stroke-width="2.7" stroke-miterlimit="10" stroke-linecap="round" stroke-linejoin="round"/>
	<path d="M430.5 1514.6L492.7 1542.1L510.4 1513.3" fill="black"/>
	<path d="M430.5 1514.6L492.7 1542.1L510.4 1513.3" stroke="black" stroke-width="2.7" stroke-miterlimit="10" stroke-linecap="round" stroke-linejoin="round"/>
	<path d="M570.731 1449.35C600.555 1404.45 602.169 1353.06 574.336 1334.57C546.503 1316.08 499.762 1337.5 469.938 1382.4C440.113 1427.3 438.499 1478.69 466.332 1497.17C494.165 1515.66 540.906 1494.25 570.731 1449.35Z" fill="#B118C8" stroke="black" stroke-width="2.7" stroke-miterlimit="10" stroke-linecap="round" stroke-linejoin="round"/>
	<path d="M561.9 1329.2L661.8 1368.1L573.1 1537.7L468.5 1498.5" fill="#B118C8"/>
	<path d="M561.9 1329.2L661.8 1368.1L573.1 1537.7L468.5 1498.5" stroke="black" stroke-width="2.7" stroke-miterlimit="10" stroke-linecap="round" stroke-linejoin="round"/>
	<path d="M573.1 1537.7L661.9 1368.1L571.6 1333C568.6 1331.4 565.4 1330.1 562 1329.3H561.9C550.1 1326.4 535.7 1328.4 520.3 1336C479.5 1356.2 446.5 1408.4 446.5 1452.5C446.5 1474.8 455 1490.8 468.6 1498.5H468.7C472.2 1500.5 475.9 1501.9 480 1502.7L573.1 1537.7Z" stroke="black" stroke-width="2.7" stroke-miterlimit="10" stroke-linecap="round" stroke-linejoin="round"/>
	<path d="M582.9 1244.5L457.6 1306.6L424.1 884.2L616.4 788.9L582.9 1244.5Z" fill="#B118C8" stroke="black" stroke-width="2.7" stroke-miterlimit="10" stroke-linecap="round" stroke-linejoin="round"/>
	<path d="M529.8 924L424.1 884.2L616.4 788.9L722 828.7L529.8 924Z" fill="#B118C8" stroke="black" stroke-width="2.7" stroke-miterlimit="10" stroke-linecap="round" stroke-linejoin="round"/>
	<path d="M457.6 1306.6L563.2 1346.5L529.8 924L424.1 884.2L457.6 1306.6Z" fill="#B118C8" stroke="black" stroke-width="2.7" stroke-miterlimit="10" stroke-linecap="round" stroke-linejoin="round"/>
	<path d="M457.6 1306.6L563.2 1346.5L529.8 924L424.1 884.2L457.6 1306.6Z" stroke="black" stroke-width="2.7" stroke-miterlimit="10" stroke-linecap="round" stroke-linejoin="round"/>
	<path d="M676.302 1489.21C706.126 1444.31 707.741 1392.92 679.908 1374.43C652.074 1355.95 605.333 1377.36 575.509 1422.26C545.684 1467.16 544.07 1518.55 571.903 1537.04C599.737 1555.52 646.477 1534.11 676.302 1489.21Z" fill="#C794CF" stroke="black" stroke-width="2.7" stroke-miterlimit="10" stroke-linecap="round" stroke-linejoin="round"/>
	<path d="M688.6 1284.4L563.2 1346.5L529.8 924L722 828.7L688.6 1284.4Z" fill="#C794CF" stroke="black" stroke-width="2.7" stroke-miterlimit="10" stroke-linecap="round" stroke-linejoin="round"/>
	<path d="M529.8 924L424.1 884.2L616.4 788.9L722 828.7L529.8 924Z" stroke="black" stroke-width="2.7" stroke-miterlimit="10" stroke-linecap="round" stroke-linejoin="round"/>
</svg>
