<?xml version="1.0" encoding="UTF-8" standalone="no"?>
<!-- Created with Inkscape (http://www.inkscape.org/) -->

<svg
		xmlns:dc="http://purl.org/dc/elements/1.1/"
		xmlns:cc="http://creativecommons.org/ns#"
		xmlns:rdf="http://www.w3.org/1999/02/22-rdf-syntax-ns#"
		xmlns:svg="http://www.w3.org/2000/svg"
		xmlns="http://www.w3.org/2000/svg"
		xmlns:sodipodi="http://sodipodi.sourceforge.net/DTD/sodipodi-0.dtd"
		xmlns:inkscape="http://www.inkscape.org/namespaces/inkscape"
		id="svg4789"
		version="1.1"
		inkscape:version="0.91 r13725"
		xml:space="preserve"
		width="68"
		height="68"
		viewBox="0 0 68 68"
		sodipodi:docname="helmet.svg"><metadata
     id="metadata4795"><rdf:RDF><cc:Work
         rdf:about=""><dc:format>image/svg+xml</dc:format><dc:type
		rdf:resource="http://purl.org/dc/dcmitype/StillImage"/><dc:title></dc:title></cc:Work></rdf:RDF></metadata>
	<defs
			id="defs4793"><clipPath
       clipPathUnits="userSpaceOnUse"
       id="clipPath4823"><path
         d="m 0,73 213.691,0 0,-73 L 0,0 0,73 Z"
         id="path4825"
         inkscape:connector-curvature="0" /></clipPath></defs>
	<sodipodi:namedview
			pagecolor="#ffffff"
			bordercolor="#666666"
			borderopacity="1"
			objecttolerance="10"
			gridtolerance="10"
			guidetolerance="10"
			inkscape:pageopacity="0"
			inkscape:pageshadow="2"
			inkscape:window-width="640"
			inkscape:window-height="480"
			id="namedview4791"
			showgrid="false"
			fit-margin-top="0"
			fit-margin-left="0"
			fit-margin-right="0"
			fit-margin-bottom="0"
			inkscape:current-layer="g4797"/>
	<g
			id="g4797"
			inkscape:groupmode="layer"
			inkscape:label="Only_Headder_With _Title"
			transform="matrix(1.25,0,0,-1.25,-6.9670988,83.855468)"><g
       id="g4819"
       transform="translate(0.34321942,0.77224369)"><g
         id="g4821"
         clip-path="url(#clipPath4823)"><g
           id="g4827"
           transform="translate(36.7996,65.2001)"><path
             d="M 0,0 C 0.475,0.05 0.938,0.175 1.396,0.309 2.009,0.3 2.621,0.298 3.234,0.3 4.861,0.166 6.46,-0.356 7.549,-1.64 5.622,-1.782 3.699,-2.318 2.085,-3.403 0.767,-4.22 -0.32,-5.334 -1.545,-6.272 c -1.255,0 -2.515,0 -3.735,0.313 1.099,1.716 2.268,3.459 3.934,4.678 C -0.929,-0.843 -0.201,-0.629 0,0"
             style="fill:#fcbf3c;fill-opacity:1;fill-rule:nonzero;stroke:none"
             id="path4829"
             inkscape:connector-curvature="0" /></g><g
			id="g4831"
			transform="translate(35.5011,64.9581)"><path
             d="m 0,0 c 0.426,0.11 0.856,0.218 1.298,0.242 -0.2,-0.629 -0.929,-0.843 -1.346,-1.281 -1.665,-1.219 -2.834,-2.962 -3.934,-4.678 -1.264,-2.044 -2.64,-4.077 -3.373,-6.384 -0.265,-0.493 -0.592,-0.957 -0.738,-1.504 -0.052,0.125 -0.156,0.378 -0.208,0.503 l 0.078,0.165 c 0.83,1.62 1.348,3.387 2.206,4.999 0.564,1.435 1.316,2.776 2.124,4.084 0.907,1.352 1.853,2.737 3.243,3.636 C -0.432,-0.149 -0.216,-0.076 0,0"
             style="fill:#fbaf2d;fill-opacity:1;fill-rule:nonzero;stroke:none"
             id="path4833"
             inkscape:connector-curvature="0" /></g><g
			id="g4835"
			transform="translate(30.2099,64.6405)"><path
             d="M 0,0 C 0.335,0.041 1.005,0.123 1.342,0.164 1.919,0.16 2.5,0.156 3.079,0.151 3.47,0.138 4.25,0.112 4.641,0.099 3.252,-0.799 2.305,-2.184 1.398,-3.537 1.497,-2.956 0.899,-3.051 0.525,-3.141 -0.812,-3.679 -2.234,-4.029 -3.47,-4.786 -2.625,-2.802 -0.771,-1.54 0.737,-0.097 0.553,-0.073 0.184,-0.024 0,0"
             style="fill:#fcbd3d;fill-opacity:1;fill-rule:nonzero;stroke:none"
             id="path4837"
             inkscape:connector-curvature="0" /></g><g
			id="g4839"
			transform="translate(27.9305,63.1973)"><path
             d="M 0,0 C 0.955,0.136 1.499,0.994 2.279,1.443 2.463,1.419 2.832,1.37 3.016,1.346 1.508,-0.097 -0.346,-1.359 -1.19,-3.342 c -0.856,-1.42 -1.463,-2.963 -1.856,-4.57 -0.219,-0.203 -0.435,-0.562 -0.759,-0.296 0.277,1.83 1.448,3.435 1.608,5.272 -1.253,0.132 -2.144,-1.026 -2.986,-1.778 -5.434,-4.918 -8.621,-11.946 -9.814,-19.091 -0.021,-0.166 -0.038,-0.335 -0.051,-0.504 -0.484,-0.004 -0.279,-0.561 -0.348,-0.877 l -0.203,-0.013 c -0.002,0.335 0.004,0.668 -0.013,1.001 -0.264,-0.063 -0.493,-0.069 -0.456,0.278 0.041,2.636 0.75,5.209 1.396,7.748 1.257,4.339 3.197,8.668 6.574,11.78 C -5.896,-2.169 -2.943,-0.923 0,0"
             style="fill:#f9ab2f;fill-opacity:1;fill-rule:nonzero;stroke:none"
             id="path4841"
             inkscape:connector-curvature="0" /></g><g
			id="g4843"
			transform="translate(38.8846,61.7972)"><path
             d="M 0,0 C 1.614,1.085 3.537,1.62 5.464,1.763 5.998,1.253 6.501,0.713 7.024,0.19 5.823,-0.017 4.498,-0.136 3.481,-0.879 1.69,-1.752 0.136,-3.005 -1.499,-4.125 -1.757,-4.297 -1.955,-4.537 -2.143,-4.781 -3.9,-6.024 -5.302,-7.668 -6.845,-9.152 c -0.46,-0.43 -0.87,-0.908 -1.188,-1.452 -0.912,-0.774 -1.681,-1.69 -2.37,-2.664 -0.244,0.339 0.05,0.681 0.207,0.981 0.884,1.501 1.727,3.033 2.759,4.44 1.176,1.73 2.446,3.392 3.807,4.978 C -2.405,-1.932 -1.318,-0.817 0,0"
             style="fill:#fcaf2b;fill-opacity:1;fill-rule:nonzero;stroke:none"
             id="path4845"
             inkscape:connector-curvature="0" /></g><g
			id="g4847"
			transform="translate(45.9086,61.9874)"><path
             d="M 0,0 C 0.724,-0.352 1.577,-0.622 2.065,-1.305 0.186,-1.411 -1.672,-1.098 -3.543,-1.069 -2.526,-0.326 -1.201,-0.207 0,0"
             style="fill:#f9bd3d;fill-opacity:1;fill-rule:nonzero;stroke:none"
             id="path4849"
             inkscape:connector-curvature="0" /></g><g
			id="g4851"
			transform="translate(30.7349,61.4991)"><path
             d="m 0,0 c 0.374,0.091 0.972,0.186 0.873,-0.395 -0.808,-1.308 -1.56,-2.649 -2.124,-4.084 -0.272,0.298 -0.618,0.074 -0.92,-0.034 -1.316,-0.614 -2.805,-1.171 -3.723,-2.353 0.011,0.162 0.032,0.49 0.043,0.652 0.393,1.608 1.001,3.15 1.856,4.57 C -2.759,-0.888 -1.337,-0.538 0,0"
             style="fill:#fdc33b;fill-opacity:1;fill-rule:nonzero;stroke:none"
             id="path4853"
             inkscape:connector-curvature="0" /></g><g
			id="g4855"
			transform="translate(42.3652,60.9179)"><path
             d="m 0,0 c 1.871,-0.028 3.729,-0.341 5.609,-0.236 0.644,-0.762 1.553,-1.268 2.026,-2.177 -2.599,0.019 -4.993,-1.05 -7.142,-2.414 0.101,0.53 0.585,1.474 -0.925,0.711 -1.722,0.121 -3.511,-0.268 -5.192,0.214 0.188,0.244 0.387,0.484 0.644,0.657 C -3.345,-2.126 -1.791,-0.873 0,0"
             style="fill:#fdc53a;fill-opacity:1;fill-rule:nonzero;stroke:none"
             id="path4857"
             inkscape:connector-curvature="0" /></g><g
			id="g4859"
			transform="translate(22.7473,58.4829)"><path
             d="M 0,0 C 0.843,0.752 1.733,1.91 2.986,1.778 2.826,-0.058 1.655,-1.664 1.378,-3.494 L 1.223,-3.44 c -0.067,0.108 -0.199,0.324 -0.264,0.432 -1.702,-1.566 -3.61,-2.983 -4.887,-4.949 -2.558,-3.462 -4.347,-7.528 -4.816,-11.827 -0.428,-0.547 -0.646,0.551 -1.069,0.693 C -8.621,-11.946 -5.434,-4.917 0,0"
             style="fill:#fdc23b;fill-opacity:1;fill-rule:nonzero;stroke:none"
             id="path4861"
             inkscape:connector-curvature="0" /></g><g
			id="g4863"
			transform="translate(28.1465,52.8568)"><path
             d="M 0,0 C 0.732,2.307 2.109,4.341 3.373,6.384 4.593,6.071 5.853,6.071 7.108,6.071 5.747,4.485 4.477,2.824 3.301,1.093 2.867,1.966 1.899,1.344 1.219,1.195 0.534,1.167 0.398,0.423 0,0"
             style="fill:#fdc838;fill-opacity:1;fill-rule:nonzero;stroke:none"
             id="path4865"
             inkscape:connector-curvature="0" /></g><g
			id="g4867"
			transform="translate(50.0007,58.5045)"><path
             d="m 0,0 c 0.499,-0.687 1.007,-1.365 1.532,-2.033 1.35,-0.804 2.232,-2.158 2.994,-3.496 1.995,-3.738 3.338,-7.793 4.332,-11.9 -0.058,-0.132 -0.173,-0.396 -0.231,-0.527 -0.024,0.179 -0.071,0.538 -0.095,0.719 -0.294,-0.032 -0.458,-0.268 -0.629,-0.477 -1.361,4.215 -3.24,8.402 -6.198,11.738 -0.502,0.451 -1.059,0.827 -1.575,1.257 -0.478,0.419 -1.009,0.811 -1.645,0.942 -1.722,0.534 -3.32,-0.464 -4.807,-1.199 -0.464,-0.114 -0.901,-0.043 -1.262,0.279 -0.363,0.413 -2.072,-0.074 -1.659,0.912 0.67,0.503 1.402,0.909 2.1,1.372 C -4.993,-1.05 -2.599,0.019 0,0"
             style="fill:#faaf2b;fill-opacity:1;fill-rule:nonzero;stroke:none"
             id="path4869"
             inkscape:connector-curvature="0" /></g><g
			id="g4871"
			transform="translate(28.5635,56.9856)"><path
             d="m 0,0 c 0.302,0.108 0.648,0.333 0.92,0.035 -0.857,-1.612 -1.376,-3.38 -2.206,-5 -0.373,0.216 -0.939,0.434 -1.177,-0.136 -0.665,-0.804 -1.608,-1.281 -2.353,-1.992 0.344,1.581 0.568,3.204 1.093,4.74 C -2.804,-1.171 -1.316,-0.614 0,0"
             style="fill:#fdc938;fill-opacity:1;fill-rule:nonzero;stroke:none"
             id="path4873"
             inkscape:connector-curvature="0" /></g><g
			id="g4875"
			transform="translate(36.7413,57.0159)"><path
             d="m 0,0 c 1.681,-0.482 3.47,-0.093 5.192,-0.214 1.51,0.763 1.026,-0.181 0.925,-0.711 -0.698,-0.462 -1.431,-0.868 -2.101,-1.372 -1,-0.695 -1.881,-1.547 -2.882,-2.247 -0.017,0.095 -0.052,0.283 -0.069,0.378 -1.983,-0.484 -4.068,-0.672 -5.954,-1.553 -0.32,-0.153 -0.659,-0.285 -1.001,-0.104 0.318,0.545 0.728,1.022 1.189,1.452 C -3.159,-2.887 -1.757,-1.242 0,0"
             style="fill:#fdce36;fill-opacity:1;fill-rule:nonzero;stroke:none"
             id="path4877"
             inkscape:connector-curvature="0" /></g><g
			id="g4879"
			transform="translate(18.8194,50.5255)"><path
             d="M 0,0 C 1.277,1.966 3.185,3.383 4.887,4.95 4.952,4.842 5.084,4.626 5.151,4.518 4.93,3.295 4.691,2.078 4.414,0.869 4.25,1.182 3.941,0.894 3.755,0.786 2.107,-1.208 0.328,-3.219 -0.57,-5.684 c -1.323,-2.647 -1.707,-5.594 -2.079,-8.489 -0.302,-0.098 -0.611,-0.177 -0.912,-0.286 -0.939,0.804 -1.732,1.768 -2.376,2.822 0.013,0.169 0.03,0.337 0.052,0.504 0.423,-0.143 0.641,-1.241 1.069,-0.694 C -4.347,-7.527 -2.558,-3.461 0,0"
             style="fill:#fcc639;fill-opacity:1;fill-rule:nonzero;stroke:none"
             id="path4881"
             inkscape:connector-curvature="0" /></g><g
			id="g4883"
			transform="translate(24.1257,54.9893)"><path
             d="M 0,0 C 0.324,-0.266 0.54,0.093 0.758,0.296 0.748,0.134 0.726,-0.194 0.715,-0.356 0.19,-1.893 -0.035,-3.515 -0.378,-5.097 c -0.663,-2.229 -0.912,-4.567 -1.627,-6.777 0.011,0.866 0.093,1.728 0.125,2.592 0.292,1.904 0.579,3.805 0.988,5.687 0.276,1.21 0.516,2.426 0.736,3.649 L 0,0 Z"
             style="fill:#fcb42b;fill-opacity:1;fill-rule:nonzero;stroke:none"
             id="path4885"
             inkscape:connector-curvature="0" /></g><g
			id="g4887"
			transform="translate(43.6788,53.5287)"><path
             d="M 0,0 C 1.486,0.735 3.085,1.733 4.807,1.199 5.442,1.067 5.974,0.676 6.451,0.257 5.531,0.4 4.58,-0.112 4.228,-0.974 3.816,-1.601 4.481,-2.787 3.651,-3.187 L 3.433,-3.185 C 3.52,-2.882 3.746,-2.482 3.23,-2.536 1.726,-1.923 0.277,-1.108 -1.344,-0.795 -0.901,-0.521 -0.441,-0.277 0,0"
             style="fill:#fdcd36;fill-opacity:1;fill-rule:nonzero;stroke:none"
             id="path4889"
             inkscape:connector-curvature="0" /></g><g
			id="g4891"
			transform="translate(37.8756,52.4722)"><path
             d="M 0,0 C 1,0.7 1.882,1.551 2.882,2.247 2.47,1.262 4.179,1.748 4.542,1.335 4.902,1.013 5.339,0.942 5.803,1.057 5.363,0.78 4.902,0.536 4.459,0.261 2.88,-0.629 1.353,-1.614 -0.082,-2.724 c -3.593,-2.703 -7.18,-5.432 -10.583,-8.371 0.255,1.072 1.18,1.776 1.817,2.613 1.636,1.611 2.989,3.506 4.823,4.913 C -2.705,-2.357 -1.422,-1.098 0,0"
             style="fill:#fcb526;fill-opacity:1;fill-rule:nonzero;stroke:none"
             id="path4893"
             inkscape:connector-curvature="0" /></g><g
			id="g4895"
			transform="translate(29.3651,54.0516)"><path
             d="M 0,0 C 0.681,0.149 1.648,0.771 2.083,-0.102 1.05,-1.508 0.207,-3.04 -0.676,-4.542 c -0.158,-0.3 -0.452,-0.641 -0.208,-0.98 -0.177,-0.538 -0.574,-0.26 -0.834,0.051 -3.381,-2.385 -5.254,-6.442 -5.92,-10.446 -0.034,-1.266 -0.475,-2.739 0.277,-3.876 -0.929,0.257 -1.834,0.59 -2.731,0.94 -0.201,0.263 -0.683,0.4 -0.598,0.795 0.138,1.54 0.11,3.111 0.555,4.604 0.456,2.232 1.674,4.183 2.677,6.192 0.713,0.327 -0.087,-0.769 0.339,-1.082 -0.032,-0.864 -0.115,-1.726 -0.125,-2.593 0.715,2.21 0.963,4.548 1.627,6.778 0.745,0.711 1.687,1.188 2.352,1.992 0.238,0.57 0.804,0.352 1.178,0.136 l -0.078,-0.164 c -0.32,-0.867 -0.862,-1.707 -0.825,-2.66 0.667,0.499 0.778,1.411 1.033,2.156 0.146,0.547 0.473,1.012 0.738,1.504 C -0.821,-0.771 -0.685,-0.028 0,0"
             style="fill:#fdce36;fill-opacity:1;fill-rule:nonzero;stroke:none"
             id="path4897"
             inkscape:connector-curvature="0" /></g><g
			id="g4899"
			transform="translate(47.9071,52.5543)"><path
             d="M 0,0 C 0.352,0.862 1.303,1.374 2.223,1.232 2.74,0.802 3.297,0.426 3.798,-0.026 3.857,-0.981 3.85,-1.981 3.195,-2.731 c 0.556,-1.117 1.368,-2.504 0.742,-3.766 -0.821,0.352 -2.33,0.162 -2.016,1.593 -0.352,0.481 -0.802,1.125 -1.567,0.678 -0.462,-0.335 -1.037,-0.94 -0.523,-1.497 -0.151,-0.703 -0.373,-1.394 -0.429,-2.113 -0.098,0.041 -0.292,0.121 -0.392,0.162 -0.127,-0.834 -0.192,-1.696 -0.466,-2.502 -0.64,0.214 -1.333,0.304 -1.93,0.626 0.083,0.921 0.415,1.802 0.487,2.725 0.505,1.603 0.509,3.632 2.104,4.615 l 0.218,-0.002 c -0.979,-0.847 -1.4,-2.027 -1.625,-3.274 -0.073,-0.263 -0.125,-0.533 -0.177,-0.803 -0.199,-0.741 -0.313,-1.498 -0.341,-2.265 0.646,0.376 0.765,1.126 0.862,1.802 0.093,0.404 0.175,0.81 0.238,1.221 0.311,1.184 0.507,2.446 1.486,3.271 -0.112,0.013 -0.333,0.037 -0.443,0.048 C 0.253,-1.813 -0.413,-0.627 0,0"
             style="fill:#f8b23f;fill-opacity:1;fill-rule:nonzero;stroke:none"
             id="path4901"
             inkscape:connector-curvature="0" /></g><g
			id="g4903"
			transform="translate(48.3413,52.4117)"><path
             d="M 0,0 C 0.037,0.871 1.178,1.078 1.862,0.851 1.255,0.605 0.694,-0.13 0,0"
             style="fill:#feefd2;fill-opacity:1;fill-rule:nonzero;stroke:none"
             id="path4905"
             inkscape:connector-curvature="0" /></g><g
			id="g4907"
			transform="translate(50.2038,53.263)"><path
             d="m 0,0 0.181,0.061 0.037,-0.253 c -0.695,-0.553 -1.484,-0.973 -2.214,-1.476 0.075,0.214 -0.221,0.914 0.134,0.817 C -1.169,-0.981 -0.607,-0.246 0,0"
             style="fill:#fcdfad;fill-opacity:1;fill-rule:nonzero;stroke:none"
             id="path4909"
             inkscape:connector-curvature="0" /></g><g
			id="g4911"
			transform="translate(50.422,53.0707)"><path
             d="m 0,0 c 0.184,0.026 0.227,-0.16 0.132,-0.555 -0.743,-0.322 -1.441,-0.731 -2.143,-1.13 l -0.214,0 0.01,0.209 C -1.484,-0.972 -0.696,-0.553 0,0"
             style="fill:#fad28d;fill-opacity:1;fill-rule:nonzero;stroke:none"
             id="path4913"
             inkscape:connector-curvature="0" /></g><g
			id="g4915"
			transform="translate(31.8519,51.2969)"><path
             d="M 0,0 C 1.886,0.882 3.971,1.069 5.955,1.553 5.972,1.458 6.006,1.27 6.024,1.175 4.602,0.078 3.319,-1.182 1.999,-2.394 0.164,-3.8 -1.188,-5.695 -2.824,-7.307 c -0.637,-0.836 -1.562,-1.541 -1.817,-2.612 -0.305,-0.402 -0.76,-0.622 -1.18,-0.882 -0.607,-1.395 -0.797,-2.936 -0.946,-4.44 -0.117,-0.948 0.339,-1.91 -0.002,-2.839 -1.037,0.318 -2.057,0.685 -3.079,1.042 -0.752,1.136 -0.311,2.61 -0.276,3.876 0.665,4.003 2.538,8.061 5.92,10.446 0.259,-0.311 0.656,-0.59 0.834,-0.052 0.689,0.975 1.458,1.891 2.37,2.664 0.341,-0.181 0.68,-0.049 1,0.104"
             style="fill:#fdd433;fill-opacity:1;fill-rule:nonzero;stroke:none"
             id="path4917"
             inkscape:connector-curvature="0" /></g><g
			id="g4919"
			transform="translate(37.7935,49.7477)"><path
             d="M 0,0 C 1.435,1.111 2.962,2.096 4.542,2.986 6.162,2.673 7.612,1.858 9.115,1.244 9.632,1.299 9.405,0.899 9.319,0.596 7.724,-0.387 7.72,-2.416 7.214,-4.019 7.132,-3.345 7.339,-2.692 7.387,-2.024 6.741,-2.109 5.998,-1.856 5.382,-2.176 5.272,-2.225 5.054,-2.325 4.946,-2.374 4.855,-2.4 4.671,-2.45 4.58,-2.476 c 0.286,0.57 0.562,1.147 0.824,1.731 -0.335,0.028 -0.67,0.041 -1.005,0.06 C 3.79,-0.605 3.187,-0.529 2.575,-0.551 2.04,-0.529 1.506,-0.508 0.972,-0.484 0.724,-0.186 0.374,-0.054 0,0"
             style="fill:#fcd433;fill-opacity:1;fill-rule:nonzero;stroke:none"
             id="path4921"
             inkscape:connector-curvature="0" /></g><g
			id="g4923"
			transform="translate(48.4105,51.3855)"><path
             d="M 0,0 C 0.702,0.4 1.4,0.808 2.143,1.13 1.834,0.622 1.361,0.225 0.722,-0.063 0.549,-0.175 -0.132,-0.411 0,0"
             style="fill:#f9c46d;fill-opacity:1;fill-rule:nonzero;stroke:none"
             id="path4925"
             inkscape:connector-curvature="0" /></g><g
			id="g4927"
			transform="translate(51.7054,52.5284)"><path
             d="m 0,0 c 2.958,-3.336 4.838,-7.523 6.199,-11.738 0.017,-0.078 0.052,-0.236 0.069,-0.314 -0.249,-0.237 -0.48,-0.49 -0.705,-0.749 l -0.002,0.229 c 0.266,1.188 0.113,2.847 -1.287,3.236 -0.385,0.337 -0.847,0.119 -1.277,0.097 -0.584,1.022 -1.336,2.081 -2.539,2.373 -1.482,0.35 -2.912,0.968 -4.425,1.169 -0.514,0.557 0.061,1.162 0.523,1.497 0.765,0.447 1.214,-0.197 1.566,-0.679 -0.313,-1.43 1.195,-1.24 2.016,-1.592 0.627,1.262 -0.186,2.649 -0.741,3.766 C 0.052,-1.955 0.058,-0.955 0,0"
             style="fill:#fdcd36;fill-opacity:1;fill-rule:nonzero;stroke:none"
             id="path4929"
             inkscape:connector-curvature="0" /></g><g
			id="g4931"
			transform="translate(26.3749,49.1968)"><path
             d="M 0,0 C -0.037,0.953 0.506,1.793 0.825,2.66 0.877,2.534 0.981,2.282 1.033,2.156 0.778,1.411 0.668,0.499 0,0"
             style="fill:#fcc431;fill-opacity:1;fill-rule:nonzero;stroke:none"
             id="path4933"
             inkscape:connector-curvature="0" /></g><g
			id="g4935"
			transform="translate(22.5744,51.312)"><path
             d="M 0,0 C 0.186,0.108 0.495,0.395 0.659,0.082 0.251,-1.8 -0.037,-3.701 -0.328,-5.605 c -0.426,0.314 0.373,1.409 -0.34,1.083 -1.002,-2.009 -2.221,-3.96 -2.677,-6.192 -0.445,-1.493 -0.417,-3.064 -0.555,-4.604 -0.084,-0.396 0.398,-0.532 0.599,-0.796 -0.582,0.137 -1.139,0.407 -1.742,0.43 -0.356,-0.129 -0.577,-0.475 -0.862,-0.71 -0.462,0.393 -0.959,0.743 -1.411,1.149 0.301,0.108 0.61,0.188 0.912,0.285 0.372,2.895 0.756,5.842 2.079,8.489 C -3.427,-4.006 -1.649,-1.994 0,0"
             style="fill:#fdca37;fill-opacity:1;fill-rule:nonzero;stroke:none"
             id="path4937"
             inkscape:connector-curvature="0" /></g><g
			id="g4939"
			transform="translate(47.3302,50.3419)"><path
             d="M 0,0 C 0.11,-0.011 0.331,-0.035 0.443,-0.048 -0.536,-0.873 -0.732,-2.135 -1.044,-3.319 -1.242,-3.355 -1.437,-3.34 -1.625,-3.273 -1.4,-2.027 -0.979,-0.847 0,0"
             style="fill:#fdeed0;fill-opacity:1;fill-rule:nonzero;stroke:none"
             id="path4941"
             inkscape:connector-curvature="0" /></g><g
			id="g4943"
			transform="translate(27.211,41.3777)"><path
             d="M 0,0 C 3.403,2.938 6.989,5.667 10.582,8.37 10.956,8.316 11.306,8.184 11.555,7.886 10.92,6.89 10.14,5.996 9.414,5.069 8.755,5.367 8.469,4.233 7.826,4.161 2.841,2.562 -0.482,-3.269 1.126,-8.327 1.266,-8.759 1.275,-9.2 1.152,-9.649 1.124,-9.556 1.067,-9.373 1.039,-9.28 c -1.028,0.448 -2.102,0.77 -3.167,1.12 0.341,0.929 -0.115,1.89 0.002,2.839 0.149,1.503 0.339,3.044 0.946,4.439 0.419,0.26 0.875,0.48 1.18,0.882"
             style="fill:#fdda31;fill-opacity:1;fill-rule:nonzero;stroke:none"
             id="path4945"
             inkscape:connector-curvature="0" /></g><g
			id="g4947"
			transform="translate(38.7657,49.2638)"><path
             d="M 0,0 C 0.534,-0.024 1.067,-0.045 1.603,-0.067 2.204,-0.143 2.815,-0.223 3.427,-0.201 3.762,-0.22 4.096,-0.233 4.431,-0.261 4.17,-0.845 3.893,-1.422 3.608,-1.992 3.543,-2.107 3.412,-2.336 3.347,-2.452 2.591,-1.858 1.497,-1.407 0.633,-2.035 -0.892,-3.103 -0.38,-5.79 1.461,-6.147 1.201,-6.693 0.918,-7.227 0.622,-7.756 c -1.484,-0.039 -2.955,-0.26 -4.42,-0.476 -0.804,-0.002 -1.593,-0.127 -2.377,-0.278 -0.032,0.071 -0.097,0.213 -0.13,0.287 1.37,1.813 2.818,3.571 4.164,5.406 C -1.415,-1.891 -0.635,-0.996 0,0"
             style="fill:#fef2ac;fill-opacity:1;fill-rule:nonzero;stroke:none"
             id="path4949"
             inkscape:connector-curvature="0" /></g><g
			id="g4951"
			transform="translate(40.3689,49.1968)"><path
             d="M 0,0 C 0.611,0.022 1.214,-0.054 1.824,-0.134 1.212,-0.156 0.601,-0.076 0,0"
             style="fill:#fde36f;fill-opacity:1;fill-rule:nonzero;stroke:none"
             id="path4953"
             inkscape:connector-curvature="0" /></g><g
			id="g4955"
			transform="translate(43.1754,47.5721)"><path
             d="M 0,0 C 0.616,0.32 1.359,0.067 2.005,0.151 1.957,-0.516 1.75,-1.169 1.832,-1.843 1.294,-2.232 0.454,-2.027 0.117,-2.72 -0.523,-3.433 0.151,-4.3 0.758,-4.753 2.266,-5.229 3.826,-5.538 5.311,-6.093 5.188,-6.83 5.01,-7.553 4.827,-8.277 3.288,-7.89 1.772,-7.422 0.24,-7.013 c -1.249,0.309 -1.858,1.529 -2.39,2.584 -0.16,0.024 -0.479,0.071 -0.639,0.095 0.536,1.212 1.134,2.392 1.726,3.573 0.065,0.117 0.197,0.346 0.261,0.461 0.091,0.026 0.275,0.075 0.366,0.101 l -0.022,-0.192 c -0.123,-0.184 -0.242,-0.37 -0.357,-0.56 0.461,0.145 0.895,0.359 1.346,0.53 0.361,-0.095 0.688,-0.018 0.871,0.328 C 1.052,-0.069 0.35,-0.024 0,0"
             style="fill:#87c340;fill-opacity:1;fill-rule:nonzero;stroke:none"
             id="path4957"
             inkscape:connector-curvature="0" /></g><g
			id="g4959"
			transform="translate(39.3988,47.2285)"><path
             d="M 0,0 C 0.864,0.629 1.957,0.177 2.714,-0.417 2.122,-1.599 1.523,-2.778 0.987,-3.991 L 0.827,-4.112 C -1.013,-3.755 -1.525,-1.067 0,0"
             style="fill:#d0e7b4;fill-opacity:1;fill-rule:nonzero;stroke:none"
             id="path4961"
             inkscape:connector-curvature="0" /></g><g
			id="g4963"
			transform="translate(42.739,47.3733)"><path
             d="M 0,0 C 0.108,0.05 0.326,0.149 0.436,0.199 0.786,0.175 1.489,0.13 1.839,0.106 1.655,-0.24 1.329,-0.318 0.968,-0.223 0.644,-0.125 0.307,-0.138 -0.022,-0.192 L 0,0 Z"
             style="fill:#9ecf67;fill-opacity:1;fill-rule:nonzero;stroke:none"
             id="path4965"
             inkscape:connector-curvature="0" /></g><g
			id="g4967"
			transform="translate(42.7174,47.181)"><path
             d="M 0,0 C 0.328,0.054 0.665,0.067 0.99,-0.03 0.538,-0.201 0.104,-0.415 -0.356,-0.56 -0.242,-0.369 -0.123,-0.184 0,0"
             style="fill:#d0e5a8;fill-opacity:1;fill-rule:nonzero;stroke:none"
             id="path4969"
             inkscape:connector-curvature="0" /></g><g
			id="g4971"
			transform="translate(38.9148,45.5109)"><path
             d="M 0,0 C -0.352,1.18 1.607,2.217 2.221,1.286 1.508,0.815 0.808,0.3 0,0"
             style="fill:#f2f7e5;fill-opacity:1;fill-rule:nonzero;stroke:none"
             id="path4973"
             inkscape:connector-curvature="0" /></g><g
			id="g4975"
			transform="translate(45.5283,46.2649)"><path
             d="M 0,0 C 0.052,0.27 0.104,0.54 0.177,0.804 0.365,0.737 0.56,0.722 0.758,0.758 0.696,0.348 0.614,-0.058 0.521,-0.462 0.382,-0.624 0.242,-0.782 0.097,-0.938 0.061,-0.624 0.028,-0.313 0,0"
             style="fill:#fbd694;fill-opacity:1;fill-rule:nonzero;stroke:none"
             id="path4977"
             inkscape:connector-curvature="0" /></g><g
			id="g4979"
			transform="translate(41.1359,46.7964)"><path
             d="m 0,0 c 0.328,0.248 0.076,-0.581 0.125,-0.771 -0.682,-0.398 -1.333,-0.882 -2.113,-1.072 -0.188,0.14 -0.265,0.324 -0.233,0.557 C -1.413,-0.985 -0.713,-0.471 0,0"
             style="fill:#e2efcd;fill-opacity:1;fill-rule:nonzero;stroke:none"
             id="path4981"
             inkscape:connector-curvature="0" /></g><g
			id="g4983"
			transform="translate(47.7385,46.831)"><path
             d="M 0,0 C 1.512,-0.201 2.943,-0.819 4.425,-1.169 5.628,-1.461 6.38,-2.519 6.964,-3.541 7.393,-3.52 7.856,-3.301 8.24,-3.638 9.64,-4.027 9.794,-5.687 9.528,-6.875 8.852,-7.342 8.407,-8.377 7.365,-7.968 6.899,-7.955 6.553,-7.573 6.136,-7.406 5.235,-8.277 4.049,-8.586 2.824,-8.385 c 0.078,0.78 0.266,1.547 0.505,2.29 1.102,-0.27 2.103,1.124 1.465,2.031 -0.211,0.49 -0.799,0.547 -1.244,0.698 -0.514,0.205 -1.046,0.358 -1.593,0.449 -0.79,0.285 -1.624,0.445 -2.387,0.804 C -0.374,-1.394 -0.151,-0.702 0,0"
             style="fill:#f05035;fill-opacity:1;fill-rule:nonzero;stroke:none"
             id="path4985"
             inkscape:connector-curvature="0" /></g><g
			id="g4987"
			transform="translate(35.0366,45.539)"><path
             d="m 0,0 c 0.644,0.071 0.929,1.206 1.588,0.907 -1.346,-1.834 -2.794,-3.593 -4.163,-5.405 0.032,-0.074 0.097,-0.216 0.129,-0.288 -1.05,-1.866 -2.067,-3.915 -1.601,-6.14 0.283,-1.53 1.094,-2.884 2.025,-4.107 -1.014,-0.972 -2.658,0.086 -3.887,-0.413 -0.147,-0.017 -0.441,-0.05 -0.586,-0.067 -0.194,0.089 -0.391,0.169 -0.589,0.24 0.101,0.497 0.265,0.979 0.41,1.463 0.123,0.449 0.115,0.89 -0.026,1.322 C -8.307,-7.43 -4.984,-1.599 0,0"
             style="fill:#fddf2f;fill-opacity:1;fill-rule:nonzero;stroke:none"
             id="path4989"
             inkscape:connector-curvature="0" /></g><g
			id="g4991"
			transform="translate(48.1836,46.4248)"><path
             d="M 0,0 C 0.391,-0.199 1.152,-0.022 1.305,-0.419 0.866,-0.385 0.484,-0.406 0.884,-0.853 0.419,-0.905 -0.022,-0.458 0,0"
             style="fill:#f1644b;fill-opacity:1;fill-rule:nonzero;stroke:none"
             id="path4993"
             inkscape:connector-curvature="0" /></g><g
			id="g4995"
			transform="translate(45.1869,44.0006)"><path
             d="M 0,0 C 0.028,0.767 0.143,1.523 0.341,2.264 0.369,1.951 0.402,1.64 0.439,1.327 0.583,1.482 0.724,1.64 0.862,1.802 0.765,1.126 0.646,0.376 0,0"
             style="fill:#f9c56b;fill-opacity:1;fill-rule:nonzero;stroke:none"
             id="path4997"
             inkscape:connector-curvature="0" /></g><g
			id="g4999"
			transform="translate(49.0673,45.5714)"><path
             d="M 0,0 C -0.4,0.447 -0.017,0.469 0.421,0.434 0.799,0.525 1.011,0.46 1.054,0.24 0.62,0.298 0.661,0.061 0.825,-0.236 0.532,-0.225 0.214,-0.233 0,0"
             style="fill:#f37e66;fill-opacity:1;fill-rule:nonzero;stroke:none"
             id="path5001"
             inkscape:connector-curvature="0" /></g><g
			id="g5003"
			transform="translate(43.2921,44.8519)"><path
             d="M 0,0 C 0.337,0.694 1.178,0.488 1.715,0.877 1.644,-0.045 1.311,-0.927 1.229,-1.847 c 0.597,-0.322 1.29,-0.413 1.93,-0.627 0.274,0.806 0.339,1.668 0.466,2.502 0.1,-0.041 0.294,-0.121 0.391,-0.162 C 4.779,-0.493 5.613,-0.652 6.404,-0.938 5.484,-1.113 5.935,-2.534 5.553,-3.159 5.462,-3.213 5.283,-3.319 5.194,-3.373 3.71,-2.817 2.15,-2.508 0.642,-2.033 0.035,-1.579 -0.64,-0.713 0,0"
             style="fill:#f9d931;fill-opacity:1;fill-rule:nonzero;stroke:none"
             id="path5005"
             inkscape:connector-curvature="0" /></g><g
			id="g5007"
			transform="translate(49.8926,45.3359)"><path
             d="M 0,0 C -0.164,0.296 -0.205,0.534 0.229,0.475 0.648,0.326 1.61,0.354 1.698,0.084 1.523,-0.037 1.372,-0.184 1.249,-0.356 0.858,-0.426 0.233,-0.311 0,0"
             style="fill:#f79f89;fill-opacity:1;fill-rule:nonzero;stroke:none"
             id="path5009"
             inkscape:connector-curvature="0" /></g><g
			id="g5011"
			transform="translate(51.1414,44.9794)"><path
             d="M 0,0 C 0.123,0.173 0.274,0.32 0.449,0.441 1.61,0.251 2.908,-0.562 3.118,-1.804 2.815,-1.763 2.757,-1.404 2.584,-1.21 1.873,-0.521 0.821,-0.484 0,0"
             style="fill:#fcdbcc;fill-opacity:1;fill-rule:nonzero;stroke:none"
             id="path5013"
             inkscape:connector-curvature="0" /></g><g
			id="g5015"
			transform="translate(48.8448,41.6931)"><path
             d="M 0,0 C 0.382,0.624 -0.069,2.046 0.851,2.221 1.242,1.759 1.878,1.677 2.444,1.772 2.282,-0.21 1.445,-2.098 1.381,-4.086 0.882,-4.907 0.199,-5.671 -0.674,-6.099 -1.035,-6.564 -1.069,-7.063 -0.778,-7.597 -1.251,-8.428 -2.07,-9.388 -3.174,-9.033 c -0.631,0.281 -1.113,0.806 -1.43,1.408 0,0.4 0.002,1.195 0.002,1.595 0.127,0.263 0.326,0.499 0.408,0.782 -0.311,0.557 -0.639,1.108 -0.842,1.715 0.008,0.614 0.015,1.228 0.017,1.841 0.465,0.307 1.301,-0.311 1.912,-0.358 0.063,-0.847 0.488,-2.386 1.746,-1.815 0.376,0.32 0.752,0.689 0.797,1.21 C -0.367,-1.772 -0.14,-0.894 0,0"
             style="fill:#6197bc;fill-opacity:1;fill-rule:nonzero;stroke:none"
             id="path5017"
             inkscape:connector-curvature="0" /></g><g
			id="g5019"
			transform="translate(49.696,43.9142)"><path
             d="M 0,0 C 0.547,-0.091 1.078,-0.244 1.592,-0.449 1.026,-0.544 0.391,-0.462 0,0"
             style="fill:#eec938;fill-opacity:1;fill-rule:nonzero;stroke:none"
             id="path5021"
             inkscape:connector-curvature="0" /></g><g
			id="g5023"
			transform="translate(42.7844,43.6463)"><path
             d="M 0,0 C 0.326,-0.328 0.54,-0.767 0.933,-1.033 1.517,-1.223 2.109,-1.387 2.677,-1.623 2.536,-1.77 2.39,-1.912 2.236,-2.046 1.19,-1.901 -0.104,-1.229 0,0"
             style="fill:#daebb9;fill-opacity:1;fill-rule:nonzero;stroke:none"
             id="path5025"
             inkscape:connector-curvature="0" /></g><g
			id="g5027"
			transform="translate(51.2884,43.4648)"><path
             d="m 0,0 c 0.445,-0.151 1.033,-0.207 1.244,-0.698 0.638,-0.907 -0.362,-2.301 -1.464,-2.031 -0.24,-0.743 -0.428,-1.51 -0.506,-2.29 1.225,-0.201 2.411,0.108 3.312,0.979 0.417,-0.167 0.763,-0.549 1.23,-0.562 1.041,-0.408 1.486,0.627 2.162,1.093 L 5.98,-3.738 C 4.494,-6.052 2.517,-8.005 0.315,-9.636 -0.179,-9.919 -0.648,-10.243 -1.126,-10.55 l -0.173,0 c -0.592,0.039 -1.183,-0.065 -1.767,-0.097 0.342,0.73 0.586,1.503 0.713,2.301 0.372,0.849 1.657,1.469 1.29,2.489 C -0.998,-3.87 -0.162,-1.981 0,0"
             style="fill:#fbd733;fill-opacity:1;fill-rule:nonzero;stroke:none"
             id="path5029"
             inkscape:connector-curvature="0" /></g><g
			id="g5031"
			transform="translate(40.2263,43.117)"><path
             d="M 0,0 0.16,0.121 C 0.32,0.097 0.64,0.05 0.799,0.026 1.331,-1.028 1.94,-2.249 3.189,-2.558 4.721,-2.966 6.238,-3.435 7.776,-3.822 7.845,-3.887 7.985,-4.014 8.055,-4.079 8.009,-4.6 7.633,-4.969 7.257,-5.289 6,-5.859 5.574,-4.321 5.512,-3.474 4.9,-3.427 4.064,-2.809 3.6,-3.116 3.327,-3.671 3.351,-4.388 3.582,-4.956 3.785,-5.563 4.114,-6.114 4.425,-6.672 4.343,-6.955 4.144,-7.19 4.016,-7.454 3.649,-7.901 3.593,-8.638 4.014,-9.048 c 0.318,-0.603 0.8,-1.128 1.431,-1.409 1.104,-0.354 1.923,0.605 2.396,1.437 0.263,0.499 0.298,0.998 0.103,1.497 0.873,0.428 1.556,1.193 2.055,2.014 0.367,-1.02 -0.918,-1.64 -1.29,-2.489 -0.127,-0.798 -0.371,-1.571 -0.713,-2.301 0.584,0.032 1.176,0.136 1.768,0.097 -1.003,-0.769 -2.211,-1.178 -3.345,-1.703 -0.365,-0.08 -0.728,-0.16 -1.087,-0.263 -2.383,-0.659 -4.837,-1.085 -7.309,-1.156 -0.739,-0.009 -1.508,0.108 -2.212,-0.167 -1.191,-0.054 -2.381,-0.049 -3.572,0.005 -1.117,0.127 -2.24,0.203 -3.338,0.462 1.23,0.499 2.874,-0.559 3.887,0.413 -0.931,1.223 -1.741,2.577 -2.024,4.107 -0.467,2.225 0.551,4.274 1.601,6.14 0.784,0.152 1.572,0.277 2.376,0.279 0.115,-0.698 1.055,-0.529 1.575,-0.709 -2.404,-0.851 -3.802,-3.668 -2.917,-6.071 0.893,-3.232 5.56,-4.597 7.943,-2.154 1.516,1.379 2.171,3.818 1.22,5.689 -0.708,1.584 -2.309,2.53 -3.908,2.966 0.603,-0.064 0.681,0.279 0.508,0.754 C -0.542,-1.08 -0.259,-0.547 0,0"
             style="fill:#fbe32d;fill-opacity:1;fill-rule:nonzero;stroke:none"
             id="path5033"
             inkscape:connector-curvature="0" /></g><g
			id="g5035"
			transform="translate(54.6027,42.2571)"><path
             d="M 0,0 C 0.149,0.592 0.73,0.542 1.212,0.443 0.821,0.285 0.449,-0.123 0,0"
             style="fill:#fde8d9;fill-opacity:1;fill-rule:nonzero;stroke:none"
             id="path5037"
             inkscape:connector-curvature="0" /></g><g
			id="g5039"
			transform="translate(55.8147,42.7)"><path
             d="m 0,0 c 0.341,0.147 0.458,0.039 0.35,-0.322 -0.603,-0.238 -1.141,-0.596 -1.681,-0.942 0.069,0.216 -0.231,0.897 0.119,0.821 C -0.763,-0.566 -0.391,-0.158 0,0"
             style="fill:#f9b8a4;fill-opacity:1;fill-rule:nonzero;stroke:none"
             id="path5041"
             inkscape:connector-curvature="0" /></g><g
			id="g5043"
			transform="translate(49.0695,41.0601)"><path
             d="M 0,0 C 0.108,0.436 -0.019,1.376 0.635,1.27 0.637,0.955 0.64,0.322 0.642,0.006 L 0.477,0.03 C 0.318,0.058 0.158,0.048 0,0"
             style="fill:#7ea9c5;fill-opacity:1;fill-rule:nonzero;stroke:none"
             id="path5045"
             inkscape:connector-curvature="0" /></g><g
			id="g5047"
			transform="translate(54.4838,41.4361)"><path
             d="M 0,0 C 0.54,0.346 1.078,0.704 1.681,0.942 1.741,0.179 0.64,-0.279 -0.037,-0.194 L 0,0 Z"
             style="fill:#f48972;fill-opacity:1;fill-rule:nonzero;stroke:none"
             id="path5049"
             inkscape:connector-curvature="0" /></g><g
			id="g5051"
			transform="translate(45.4613,42.0237)"><path
             d="M 0,0 C 0.404,0.093 0.851,-0.179 1.214,-0.365 1.216,-0.469 1.219,-0.678 1.219,-0.782 0.624,-0.81 0.065,-0.568 -0.523,-0.531 l 0.082,0.108 C -0.287,-0.29 -0.14,-0.147 0,0"
             style="fill:#b0d67b;fill-opacity:1;fill-rule:nonzero;stroke:none"
             id="path5053"
             inkscape:connector-curvature="0" /></g><g
			id="g5055"
			transform="translate(46.6756,41.6586)"><path
             d="M 0,0 C 0.292,0.076 0.655,-0.084 0.646,-0.421 0.873,-0.756 -0.186,-0.763 0.004,-0.417 0.004,-0.313 0.002,-0.104 0,0"
             style="fill:#99cb5a;fill-opacity:1;fill-rule:nonzero;stroke:none"
             id="path5057"
             inkscape:connector-curvature="0" /></g><g
			id="g5059"
			transform="translate(48.4861,41.4792)"><path
             d="m 0,0 c 0.089,0.054 0.268,0.16 0.359,0.214 -0.141,-0.895 -0.368,-1.772 -0.564,-2.655 -0.069,0.064 -0.21,0.192 -0.279,0.257 C -0.3,-1.461 -0.123,-0.737 0,0"
             style="fill:#d1cc47;fill-opacity:1;fill-rule:nonzero;stroke:none"
             id="path5061"
             inkscape:connector-curvature="0" /></g><g
			id="g5063"
			transform="translate(34.9674,41.032)"><path
             d="M 0,0 C 1.465,0.216 2.936,0.436 4.421,0.475 4.593,0 4.516,-0.344 3.913,-0.279 c 1.599,-0.436 3.2,-1.382 3.908,-2.966 0.951,-1.871 0.296,-4.311 -1.22,-5.689 -2.384,-2.444 -7.05,-1.078 -7.943,2.154 -0.886,2.403 0.512,5.22 2.917,6.071 C 1.054,-0.529 0.115,-0.698 0,0"
             style="fill:#fde82b;fill-opacity:1;fill-rule:nonzero;stroke:none"
             id="path5065"
             inkscape:connector-curvature="0" /></g><g
			id="g5067"
			transform="translate(49.0695,41.0601)"><path
             d="M 0,0 C 0.158,0.048 0.318,0.058 0.477,0.03 0.298,-0.631 0.523,-1.847 0.019,-2.186 -0.022,-1.878 -0.069,-1.571 -0.147,-1.27 -0.318,-0.84 -0.123,-0.411 0,0"
             style="fill:#a3c1cf;fill-opacity:1;fill-rule:nonzero;stroke:none"
             id="path5069"
             inkscape:connector-curvature="0" /></g><g
			id="g5071"
			transform="translate(57.904,40.79)"><path
             d="M 0,0 C 0.171,0.21 0.335,0.445 0.629,0.477 0.652,0.296 0.7,-0.063 0.724,-0.242 1.147,-1.636 0.687,-2.951 0.238,-4.25 c -1.096,-2.394 -2.308,-4.764 -4.095,-6.728 -1.823,-2.102 -4.211,-3.617 -6.723,-4.768 -2.971,-1.346 -6.244,-1.631 -9.442,-2.016 -0.622,0.017 -1.158,-0.176 -1.845,-0.091 -1.579,-0.071 -3.161,-0.067 -4.743,-0.097 -1.259,0.22 -2.538,0.296 -3.796,0.527 -0.481,0.212 -1.344,0.203 -0.644,1.221 0.327,1.836 0.826,3.643 1.072,5.492 0.439,-0.078 0.357,-0.553 0.465,-0.879 1.242,-0.26 2.51,-0.361 3.766,-0.534 0.674,-0.114 1.359,-0.179 2.041,-0.132 1.115,-0.017 2.239,-0.095 3.351,0.013 0.687,-0.011 1.396,-0.129 2.061,0.091 5.449,0.508 11.149,2.102 15.127,6.063 1.374,1.292 2.117,3.016 3.035,4.619 0.184,0.352 0.402,0.762 0.201,1.156 C 0.052,-0.236 0.017,-0.078 0,0"
             style="fill:#020201;fill-opacity:1;fill-rule:nonzero;stroke:none"
             id="path5073"
             inkscape:connector-curvature="0" /></g><g
			id="g5075"
			transform="translate(58.859,41.0752)"><path
             d="M 0,0 C 0.14,-0.501 0.285,-0.998 0.426,-1.499 0.378,-2.543 0.354,-3.591 0.398,-4.637 0.298,-5.146 0.149,-5.646 0.006,-6.145 c -0.004,0.631 -0.328,1.15 -0.723,1.61 0.449,1.298 0.909,2.614 0.486,4.008 C -0.173,-0.395 -0.058,-0.132 0,0"
             style="fill:#eeb133;fill-opacity:1;fill-rule:nonzero;stroke:none"
             id="path5077"
             inkscape:connector-curvature="0" /></g><g
			id="g5079"
			transform="translate(57.2688,39.727)"><path
             d="M 0,0 C 0.261,0.405 0.567,0.649 0.635,1.063 0.996,0.507 0.857,0.053 0.436,-0.513 0.479,-0.454 0.37,-0.397 0.305,-0.362 -0.996,-2.244 -2.493,-3.997 -4.382,-5.328 -4.79,-5.499 -5.157,-6.188 -5.665,-5.898 -3.463,-4.267 -1.486,-2.314 0,0"
             style="fill:#201c0f;fill-opacity:1;fill-rule:nonzero;stroke:none"
             id="path5081"
             inkscape:connector-curvature="0" /></g><g
			id="g5083"
			transform="translate(43.8085,38.1606)"><path
             d="M 0,0 C -0.231,0.568 -0.255,1.286 0.017,1.841 0.015,1.227 0.009,0.614 0,0"
             style="fill:#acbc77;fill-opacity:1;fill-rule:nonzero;stroke:none"
             id="path5085"
             inkscape:connector-curvature="0" /></g><g
			id="g5087"
			transform="translate(48.9225,39.7897)"><path
             d="m 0,0 c 0.078,-0.3 0.125,-0.607 0.166,-0.916 -0.144,-0.726 -0.721,-1.649 -1.568,-1.525 0.248,0.265 0.6,0.417 0.829,0.708 C -0.341,-1.167 -0.387,-0.495 0,0"
             style="fill:#d6e2de;fill-opacity:1;fill-rule:nonzero;stroke:none"
             id="path5089"
             inkscape:connector-curvature="0" /></g><g
			id="g5091"
			transform="translate(57.5321,39.3533)"><path
             d="m 0,0 c 0.065,-0.035 0.414,0.418 0.441,0.486 -0.587,-1.458 -1.862,-3.846 -3.237,-5.138 -3.977,-3.96 -9.677,-5.555 -15.126,-6.062 -0.691,0.028 -1.404,0.186 -2.061,-0.091 -1.113,-0.108 -2.236,-0.03 -3.351,-0.013 -0.676,0.123 -1.357,0.188 -2.042,0.132 -1.255,0.173 -2.523,0.274 -3.765,0.534 -0.108,0.326 -0.026,0.801 -0.465,0.879 l 0.026,0.186 c 0.199,-0.072 0.395,-0.152 0.59,-0.24 0.408,-0.845 1.577,-0.307 2.333,-0.555 2.761,-0.204 5.538,-0.119 8.303,-0.061 2.297,0.143 4.589,0.57 6.771,1.307 l 0.1,0.149 c -0.121,0.02 -0.367,0.061 -0.491,0.082 0.359,0.104 0.722,0.184 1.087,0.264 0.251,-0.054 0.517,-0.13 0.752,0.019 0.987,0.433 2.016,0.8 2.923,1.394 -0.039,0.071 -0.119,0.216 -0.157,0.29 0.477,0.306 0.946,0.63 1.441,0.913 0.507,-0.289 0.875,0.4 1.283,0.571 C -2.757,-3.623 -1.301,-1.882 0,0"
             style="fill:#404040;fill-opacity:1;fill-rule:nonzero;stroke:none"
             id="path5093"
             inkscape:connector-curvature="0" /></g><g
			id="g5095"
			transform="translate(59.2846,39.5758)"><path
             d="M 0,0 C 0.32,-1.013 0.143,-2.113 -0.028,-3.137 -0.071,-2.091 -0.048,-1.044 0,0"
             style="fill:#bca793;fill-opacity:1;fill-rule:nonzero;stroke:none"
             id="path5097"
             inkscape:connector-curvature="0" /></g><g
			id="g5099"
			transform="translate(11.9711,40.9414)"><path
             d="m 0,0 -0.109,-1.664 c -0.037,-0.348 0.192,-0.341 0.456,-0.279 0.017,-0.332 0.011,-0.665 0.013,-1 C 0.386,-3.82 0.3,-4.725 0.5,-5.59 c 0.305,-2.659 1.63,-5.068 3.591,-6.857 -0.963,-0.309 -1.635,-1.184 -2.225,-1.962 0.989,-3.535 3.45,-6.389 5.671,-9.221 1.139,-1.253 2.788,-1.947 3.855,-3.261 -0.57,-0.291 -1.186,-0.049 -1.785,-0.036 0.428,-0.8 1.664,-0.253 2.167,-0.88 -3.152,0.316 -6.123,1.597 -8.919,3.014 0.322,0.696 1.055,0.214 1.623,0.238 -2.426,3.079 -4.541,6.462 -5.814,10.187 0.125,1.104 0.019,2.439 -0.748,3.278 0.277,1.484 0.657,2.953 1.273,4.336 0.197,0.309 -0.065,0.598 -0.192,0.868 0.166,0.26 0.35,0.504 0.52,0.759 0.327,0.577 0.141,1.331 0.197,1.972 -0.002,0.379 0.088,1.097 0.086,1.477 L 0,0 Z"
             style="fill:#fbbe3d;fill-opacity:1;fill-rule:nonzero;stroke:none"
             id="path5101"
             inkscape:connector-curvature="0" /></g><g
			id="g5103"
			transform="translate(12.5343,38.0116)"><path
             d="M 0,0 C 0.069,0.315 -0.136,0.873 0.348,0.877 0.992,-0.177 1.785,-1.141 2.724,-1.945 3.176,-2.351 3.673,-2.701 4.135,-3.094 L 4.014,-3.224 C 3.213,-3.381 3.826,-4.554 3.738,-5.138 3.721,-5.803 3.695,-6.477 3.697,-7.147 3.688,-7.94 3.63,-8.731 3.528,-9.517 1.566,-7.728 0.242,-5.319 -0.063,-2.66 -0.028,-1.774 -0.006,-0.886 0,0"
             style="fill:#050401;fill-opacity:1;fill-rule:nonzero;stroke:none"
             id="path5105"
             inkscape:connector-curvature="0" /></g><g
			id="g5107"
			transform="translate(12.3312,37.9986)"><path
             d="M 0,0 0.203,0.013 C 0.197,-0.873 0.175,-1.761 0.14,-2.647 -0.06,-1.782 0.026,-0.877 0,0"
             style="fill:#bd7d1c;fill-opacity:1;fill-rule:nonzero;stroke:none"
             id="path5109"
             inkscape:connector-curvature="0" /></g><g
			id="g5111"
			transform="translate(58.1417,36.5402)"><path
             d="M 0,0 C 0.395,-0.46 0.719,-0.979 0.724,-1.61 0.134,-3.826 -1.29,-5.687 -2.737,-7.415 -2.824,-6.78 -3.621,-6.875 -4.094,-6.728 -2.307,-4.764 -1.095,-2.394 0,0"
             style="fill:#f3c638;fill-opacity:1;fill-rule:nonzero;stroke:none"
             id="path5113"
             inkscape:connector-curvature="0" /></g><g
			id="g5115"
			transform="translate(44.7073,35.5982)"><path
             d="M 0,0 C 0.093,0.456 1.227,1.011 1.378,0.426 0.951,0.134 0.527,-0.169 0.063,-0.4 0.048,-0.3 0.017,-0.102 0,0"
             style="fill:#d9e4df;fill-opacity:1;fill-rule:nonzero;stroke:none"
             id="path5117"
             inkscape:connector-curvature="0" /></g><g
			id="g5119"
			transform="translate(46.0857,36.0238)"><path
             d="m 0,0 c 0.056,-0.061 0.173,-0.179 0.231,-0.24 -0.518,-0.352 -1.046,-0.691 -1.568,-1.039 -0.355,-0.158 -0.368,1.054 -0.041,0.853 0.017,-0.101 0.047,-0.3 0.062,-0.399 C -0.851,-0.594 -0.428,-0.292 0,0"
             style="fill:#b3ccd3;fill-opacity:1;fill-rule:nonzero;stroke:none"
             id="path5121"
             inkscape:connector-curvature="0" /></g><g
			id="g5123"
			transform="translate(46.3169,35.784)"><path
             d="M 0,0 C 0.75,-0.119 -1.439,-1.824 -1.569,-1.039 -1.046,-0.691 -0.519,-0.352 0,0"
             style="fill:#8fb5c9;fill-opacity:1;fill-rule:nonzero;stroke:none"
             id="path5125"
             inkscape:connector-curvature="0" /></g><g
			id="g5127"
			transform="translate(16.6696,34.9176)"><path
             d="M 0,0 C 0.285,0.235 0.506,0.581 0.862,0.711 1.465,0.687 2.022,0.417 2.603,0.281 3.5,-0.069 4.405,-0.402 5.334,-0.659 6.356,-1.015 7.376,-1.383 8.413,-1.7 c 1.065,-0.35 2.139,-0.672 3.168,-1.12 0.028,-0.092 0.084,-0.276 0.112,-0.369 -0.145,-0.484 -0.309,-0.966 -0.411,-1.463 l -0.025,-0.186 c -0.247,-1.849 -0.746,-3.655 -1.072,-5.492 -0.7,-1.017 0.162,-1.009 0.644,-1.22 -0.625,0 -1.245,-0.121 -1.746,-0.512 -0.06,2.642 0.743,5.215 0.83,7.849 C 9.727,-4.421 9.66,-4.697 9.55,-4.946 c 0.14,0.964 -0.962,0.973 -1.601,1.234 0.056,0.069 0.166,0.203 0.22,0.27 -2.433,0.864 -4.827,1.835 -7.253,2.712 -0.393,0.116 -0.773,0.274 -1.037,0.6 L 0,0 Z"
             style="fill:#fab81f;fill-opacity:1;fill-rule:nonzero;stroke:none"
             id="path5129"
             inkscape:connector-curvature="0" /></g><g
			id="g5131"
			transform="translate(44.2406,34.0685)"><path
             d="M 0,0 C -0.421,0.411 -0.365,1.147 0.002,1.594 0.002,1.195 0,0.4 0,0"
             style="fill:#a0b681;fill-opacity:1;fill-rule:nonzero;stroke:none"
             id="path5133"
             inkscape:connector-curvature="0" /></g><g
			id="g5135"
			transform="translate(48.067,34.0966)"><path
             d="M 0,0 C -0.292,0.534 -0.257,1.033 0.104,1.497 0.298,0.998 0.264,0.499 0,0"
             style="fill:#a4b57f;fill-opacity:1;fill-rule:nonzero;stroke:none"
             id="path5137"
             inkscape:connector-curvature="0" /></g><g
			id="g5139"
			transform="translate(5.9186,25.854)"><path
             d="M 0,0 C 1.028,3.377 2.943,6.402 5.049,9.202 5.177,8.932 5.438,8.642 5.242,8.333 4.626,6.951 4.246,5.481 3.969,3.997 3.262,0.957 3.485,-2.411 5.123,-5.123 c 0.602,-1.303 1.739,-2.173 2.605,-3.271 -0.79,0.106 -1.54,1.055 -2.292,0.655 -2.107,1.236 -4.129,2.755 -5.49,4.807 -0.007,0.095 -0.216,0.347 -0.233,0.443 -0.144,0.774 0,1.44 0.218,2.111 C -0.039,-0.286 -0.017,-0.095 0,0"
             style="fill:#faa930;fill-opacity:1;fill-rule:nonzero;stroke:none"
             id="path5141"
             inkscape:connector-curvature="0" /></g><g
			id="g5143"
			transform="translate(16.2721,32.8737)"><path
             d="M 0,0 C 0.089,0.583 -0.525,1.757 0.277,1.914 0.54,1.588 0.92,1.43 1.314,1.314 3.74,0.436 6.134,-0.534 8.567,-1.398 8.513,-1.465 8.402,-1.599 8.346,-1.668 c -0.955,0.259 -1.832,0.75 -2.8,0.97 1.863,-1.795 3.014,-4.25 3.492,-6.762 -0.087,-0.342 0.244,-0.45 0.384,-0.132 0.143,0.339 0.015,0.708 -0.028,1.052 0.147,1.219 0.268,2.444 0.553,3.638 0.11,0.249 0.177,0.525 0.363,0.733 -0.086,-2.634 -0.89,-5.207 -0.829,-7.85 -0.266,-0.455 -0.681,-0.559 -1.247,-0.313 -1.42,0.272 -2.813,0.668 -4.23,0.951 -1.37,0.503 -2.751,1.279 -3.496,2.575 2.454,-1.033 4.677,-3.016 7.473,-2.964 -1.804,1.253 -3.999,2.111 -5.386,3.936 -1.169,0.96 -1.24,2.788 -2.401,3.673 L 0.179,-1.968 C 0.16,-1.305 0.24,-0.629 0,0"
             style="fill:#fcc20e;fill-opacity:1;fill-rule:nonzero;stroke:none"
             id="path5145"
             inkscape:connector-curvature="0" /></g><g
			id="g5147"
			transform="translate(16.2721,32.8737)"><path
             d="m 0,0 c 0.24,-0.629 0.16,-1.305 0.179,-1.968 l -0.22,-0.041 C -0.043,-1.34 -0.017,-0.665 0,0"
             style="fill:#c2870e;fill-opacity:1;fill-rule:nonzero;stroke:none"
             id="path5149"
             inkscape:connector-curvature="0" /></g><g
			id="g5151"
			transform="translate(46.6453,31.2122)"><path
             d="m 0,0 c 1.134,0.525 2.342,0.933 3.345,1.703 l 0.172,0 C 3.556,1.629 3.636,1.484 3.675,1.413 2.768,0.819 1.739,0.452 0.752,0.019 0.516,-0.13 0.251,-0.054 0,0"
             style="fill:#222016;fill-opacity:1;fill-rule:nonzero;stroke:none"
             id="path5153"
             inkscape:connector-curvature="0" /></g><g
			id="g5155"
			transform="translate(21.8182,32.1759)"><path
             d="M 0,0 C 0.968,-0.22 1.845,-0.711 2.8,-0.97 3.44,-1.232 4.542,-1.24 4.401,-2.204 4.116,-3.399 3.995,-4.624 3.848,-5.842 3.718,-6.145 3.617,-6.458 3.491,-6.763 3.014,-4.25 1.862,-1.795 0,0"
             style="fill:#fee79d;fill-opacity:1;fill-rule:nonzero;stroke:none"
             id="path5157"
             inkscape:connector-curvature="0" /></g><g
			id="g5159"
			transform="translate(16.231,30.8644)"><path
             d="M 0,0 0.22,0.041 0.236,-0.151 C 0.205,-0.985 0.145,-1.819 0.061,-2.651 0.002,-2.582 -0.11,-2.441 -0.169,-2.37 -0.067,-1.584 -0.009,-0.793 0,0"
             style="fill:#7c560b;fill-opacity:1;fill-rule:nonzero;stroke:none"
             id="path5161"
             inkscape:connector-curvature="0" /></g><g
			id="g5163"
			transform="translate(38.2493,29.7927)"><path
             d="M 0,0 C 2.472,0.071 4.926,0.497 7.309,1.156 7.432,1.134 7.679,1.093 7.8,1.074 L 7.7,0.925 C 5.518,0.188 3.226,-0.24 0.929,-0.382 0.631,-0.298 0.328,-0.24 0.024,-0.199 L 0,0 Z"
             style="fill:#1e1c0d;fill-opacity:1;fill-rule:nonzero;stroke:none"
             id="path5165"
             inkscape:connector-curvature="0" /></g><g
			id="g5167"
			transform="translate(16.4665,30.7132)"><path
             d="M 0,0 C 1.16,-0.886 1.232,-2.714 2.4,-3.673 3.787,-5.499 5.983,-6.356 7.787,-7.61 4.991,-7.661 2.768,-5.678 0.313,-4.645 -0.205,-4.062 0.065,-3.2 -0.175,-2.5 -0.091,-1.668 -0.03,-0.834 0,0"
             style="fill:#fcae13;fill-opacity:1;fill-rule:nonzero;stroke:none"
             id="path5169"
             inkscape:connector-curvature="0" /></g><g
			id="g5171"
			transform="translate(28.5419,30.0261)"><path
             d="M 0,0 C 0.145,0.017 0.439,0.05 0.586,0.067 1.683,-0.192 2.807,-0.268 3.924,-0.395 3.392,-0.441 2.863,-0.495 2.333,-0.555 1.577,-0.307 0.408,-0.845 0,0"
             style="fill:#322c0e;fill-opacity:1;fill-rule:nonzero;stroke:none"
             id="path5173"
             inkscape:connector-curvature="0" /></g><g
			id="g5175"
			transform="translate(11.0413,20.7313)"><path
             d="M 0,0 C -1.638,2.712 -1.86,6.08 -1.154,9.12 -0.387,8.281 -0.281,6.946 -0.406,5.842 0.866,2.117 2.982,-1.266 5.408,-4.345 4.84,-4.369 4.107,-3.887 3.785,-4.583 2.554,-4.062 1.381,-3.42 0.313,-2.616 1.065,-2.217 1.815,-3.165 2.606,-3.271 1.739,-2.174 0.603,-1.303 0,0"
             style="fill:#fcba3e;fill-opacity:1;fill-rule:nonzero;stroke:none"
             id="path5177"
             inkscape:connector-curvature="0" /></g><g
			id="g5179"
			transform="translate(36.0369,29.6264)"><path
             d="M 0,0 C 0.704,0.274 1.473,0.158 2.212,0.166 L 2.236,-0.032 C 1.489,-0.035 0.745,-0.05 0,0"
             style="fill:#a79518;fill-opacity:1;fill-rule:nonzero;stroke:none"
             id="path5181"
             inkscape:connector-curvature="0" /></g><g
			id="g5183"
			transform="translate(54.0474,29.8122)"><path
             d="M 0,0 C 0.473,-0.147 1.27,-0.052 1.357,-0.687 0.086,-2.1 -1.448,-3.237 -2.8,-4.567 c -2.223,-1.325 -4.38,-2.766 -6.711,-3.902 -2.379,-2.146 -5.105,-3.853 -7.812,-5.551 -0.078,-0.002 -0.234,-0.009 -0.314,-0.011 -0.546,0.061 -1.043,-0.289 -1.592,-0.283 0.147,0.285 0.32,0.556 0.443,0.852 -2.738,0.283 -5.22,1.57 -7.631,2.802 0.112,0.013 0.339,0.041 0.451,0.054 0.955,0.067 1.951,-0.123 2.887,0.138 4.006,0.32 7.905,1.385 11.639,2.841 0.272,0.069 0.482,0.253 0.659,0.463 -1.653,-0.15 -3.293,-0.549 -4.963,-0.385 -0.957,0.212 -1.936,0.186 -2.906,0.132 -1.381,0.002 -2.744,0.235 -4.103,0.445 1.582,0.03 3.163,0.026 4.743,0.097 0.615,-0.004 1.178,0.048 1.845,0.091 3.197,0.384 6.471,0.67 9.441,2.016 2.513,1.151 4.9,2.666 6.724,4.768"
             style="fill:#facf36;fill-opacity:1;fill-rule:nonzero;stroke:none"
             id="path5185"
             inkscape:connector-curvature="0" /></g><g
			id="g5187"
			transform="translate(30.8753,29.4708)"><path
             d="M 0,0 C 0.529,0.061 1.059,0.115 1.59,0.16 2.781,0.106 3.971,0.102 5.162,0.156 5.907,0.106 6.65,0.121 7.398,0.123 7.702,0.082 8.005,0.024 8.303,-0.061 5.538,-0.119 2.761,-0.203 0,0"
             style="fill:#080912;fill-opacity:1;fill-rule:nonzero;stroke:none"
             id="path5189"
             inkscape:connector-curvature="0" /></g><g
			id="g5191"
			transform="translate(32.1565,28.6671)"><path
             d="M 0,0 C 0.685,0.056 1.365,-0.009 2.042,-0.132 1.359,-0.179 0.674,-0.115 0,0"
             style="fill:#232323;fill-opacity:1;fill-rule:nonzero;stroke:none"
             id="path5193"
             inkscape:connector-curvature="0" /></g><g
			id="g5195"
			transform="translate(37.5493,28.5483)"><path
             d="M 0,0 C 0.657,0.277 1.37,0.119 2.061,0.091 1.396,-0.13 0.687,-0.011 0,0"
             style="fill:#242424;fill-opacity:1;fill-rule:nonzero;stroke:none"
             id="path5197"
             inkscape:connector-curvature="0" /></g><g
			id="g5199"
			transform="translate(13.8371,26.5325)"><path
             d="M 0,0 C 0.59,0.778 1.262,1.653 2.225,1.962 2.284,1.89 2.396,1.75 2.454,1.681 2.694,0.981 2.424,0.119 2.943,-0.465 3.688,-1.761 5.069,-2.536 6.438,-3.04 7.011,-4.045 7.797,-4.881 8.701,-5.6 8.333,-5.976 7.968,-6.354 7.603,-6.734 c 1.988,-2.677 5.008,-4.164 7.903,-5.631 0.249,-0.728 -1.214,-0.251 -1.035,-1.024 1.401,0.173 2.755,0.585 4.082,1.05 0.013,-0.089 0.041,-0.266 0.056,-0.354 -1.29,-0.307 -2.562,-0.683 -3.852,-0.981 -1.331,0.088 -2.666,0.088 -3.997,0.032 -0.255,0.03 -0.794,0.223 -1.047,0.253 l 0.195,-0.009 c -0.503,0.627 -1.739,0.08 -2.167,0.88 0.599,-0.013 1.215,-0.255 1.785,0.036 -1.067,1.314 -2.716,2.008 -3.855,3.261 C 3.45,-6.389 0.99,-3.535 0,0"
             style="fill:#fdc43b;fill-opacity:1;fill-rule:nonzero;stroke:none"
             id="path5201"
             inkscape:connector-curvature="0" /></g><g
			id="g5203"
			transform="translate(25.3097,25.4133)"><path
             d="M 0,0 C 0.125,0.305 0.227,0.618 0.356,0.92 0.4,0.577 0.527,0.207 0.385,-0.132 0.244,-0.449 -0.086,-0.341 0,0"
             style="fill:#fdd759;fill-opacity:1;fill-rule:nonzero;stroke:none"
             id="path5205"
             inkscape:connector-curvature="0" /></g><g
			id="g5207"
			transform="translate(20.2756,23.4925)"><path
             d="m 0,0 c 1.417,-0.283 2.811,-0.678 4.23,-0.951 0.566,-0.246 0.981,-0.142 1.247,0.314 0.501,0.391 1.121,0.512 1.746,0.512 1.257,-0.231 2.536,-0.307 3.796,-0.527 1.359,-0.21 2.722,-0.443 4.103,-0.446 0.959,-0.17 1.936,-0.157 2.906,-0.131 1.67,-0.165 3.31,0.235 4.963,0.384 C 22.813,-1.054 22.604,-1.238 22.332,-1.307 18.598,-2.763 14.698,-3.829 10.693,-4.148 9.738,-4.101 8.781,-4.081 7.826,-4.073 5.875,-4.019 3.993,-3.433 2.262,-2.56 1.359,-1.841 0.573,-1.005 0,0"
             style="fill:#feecac;fill-opacity:1;fill-rule:nonzero;stroke:none"
             id="path5209"
             inkscape:connector-curvature="0" /></g><g
			id="g5211"
			transform="translate(35.3974,22.395)"><path
             d="M 0,0 C 0.97,0.054 1.949,0.08 2.906,-0.132 1.936,-0.158 0.959,-0.171 0,0"
             style="fill:#fde061;fill-opacity:1;fill-rule:nonzero;stroke:none"
             id="path5213"
             inkscape:connector-curvature="0" /></g><g
			id="g5215"
			transform="translate(22.5377,20.9323)"><path
             d="M 0,0 C 1.731,-0.873 3.612,-1.458 5.563,-1.512 L 5.544,-1.726 C 5.432,-1.739 5.205,-1.767 5.092,-1.78 7.504,-3.012 9.986,-4.3 12.724,-4.583 12.6,-4.879 12.588,-5.342 12.281,-5.434 12.936,-5.237 13.64,-5.079 14.186,-5.14 13.149,-5.881 11.604,-6.27 10.503,-6.89 10.31,-6.974 10.111,-7.043 9.908,-7.093 9.893,-7.005 9.865,-6.827 9.852,-6.739 8.526,-7.203 7.171,-7.616 5.771,-7.789 5.592,-7.015 7.054,-7.493 6.806,-6.765 3.911,-5.298 0.89,-3.811 -1.098,-1.134 -0.732,-0.754 -0.367,-0.376 0,0"
             style="fill:#fcc939;fill-opacity:1;fill-rule:nonzero;stroke:none"
             id="path5217"
             inkscape:connector-curvature="0" /></g><g
			id="g5219"
			transform="translate(28.1012,19.4199)"><path
             d="M 0,0 C 0.955,-0.009 1.912,-0.028 2.867,-0.076 1.932,-0.337 0.936,-0.147 -0.019,-0.214 L 0,0 Z"
             style="fill:#fdd659;fill-opacity:1;fill-rule:nonzero;stroke:none"
             id="path5221"
             inkscape:connector-curvature="0" /></g><g
			id="g5223"
			transform="translate(24.5967,12.8906)"><path
             d="M 0,0 C 1.331,0.056 2.666,0.056 3.997,-0.032 2.694,-0.363 1.311,-0.147 0,0"
             style="fill:#fdc43b;fill-opacity:1;fill-rule:nonzero;stroke:none"
             id="path5225"
             inkscape:connector-curvature="0" /></g></g></g></g></svg>
