<?xml version="1.0" encoding="UTF-8"?>
<svg width="55px" height="55px" viewBox="0 0 55 55" version="1.1" xmlns="http://www.w3.org/2000/svg" xmlns:xlink="http://www.w3.org/1999/xlink">
    <!-- Generator: sketchtool 62 (101010) - https://sketch.com -->
    <title>E1F14358-F58C-4031-8B28-DD920D1E37C0</title>
    <desc>Created with sketchtool.</desc>
    <g id="Final" stroke="none" stroke-width="1" fill="none" fill-rule="evenodd">
        <g id="Techjoomla-Homepage--final" transform="translate(-294.000000, -545.000000)">
            <g id="products" transform="translate(274.000000, 488.000000)">
                <g id="product8">
                    <g id="icon" transform="translate(20.000000, 57.000000)">
                        <circle id="Oval" fill="#CDBE00" cx="27.5" cy="27.5" r="27.5"></circle>
                        <g id="ic-education" transform="translate(27.280814, 27.949397) rotate(26.000000) translate(-27.280814, -27.949397) translate(8.780814, 13.949397)" fill="#FFFFFF" fill-rule="nonzero">
                            <path d="M34.804094,3.78409091 C35.6826354,3.78409091 36.3977273,4.50062307 36.3977273,5.38093401 L36.3977273,25.7099751 C36.3977273,26.590286 35.6826354,27.3068182 34.804094,27.3068182 L25.0379826,27.3068182 L31.6985523,26.0375326 C33.02658,25.9965879 34.0890022,24.8910812 34.0890022,23.5603786 L34.0890022,3.78409091 L34.804094,3.78409091 Z M2.91099782,3.78409091 L2.91099782,23.5399062 C2.91099782,24.8706088 3.97341999,25.9761156 5.2810165,26.0170603 L11.9415862,27.3068182 L2.19590598,27.3068182 C1.31736457,27.3068182 0.602272727,26.590286 0.602272727,25.7099751 L0.602272727,5.38093401 C0.602272727,4.50062307 1.31736457,3.78409091 2.19590598,3.78409091 L2.91099782,3.78409091 Z M31.653241,0.204545455 C32.0208782,0.245612496 32.2863939,0.553615304 32.2863939,0.902685153 L32.2863939,23.8591611 L32.3068182,23.8591611 C32.3068182,24.249298 32.0004539,24.5778343 31.5919681,24.5778343 L31.510271,24.5778343 L20.0113973,26.7954545 C19.6437601,26.7543875 19.3782444,26.4669182 19.3782444,26.0973148 L19.3782444,3.14083889 C19.3782444,2.750702 19.6846087,2.42216567 20.0930944,2.42216567 L20.1747916,2.42216567 L25.1787419,1.45709021 L25.1787419,9.01342576 C25.1787419,9.23929449 25.4851062,9.38302913 25.6485005,9.21876097 C26.3020777,8.52062127 26.9556549,7.82248157 27.6092321,7.12434187 C28.2628093,7.82248157 28.8959622,8.50008775 29.5291151,9.17769393 L29.5393273,9.19822745 L29.5495394,9.21876097 C29.6148971,9.28446823 29.7063979,9.29760969 29.7822129,9.27921165 L29.8354794,9.25982801 C29.9376009,9.21876097 30.019298,9.13662689 30.019298,9.01342576 L30.019298,0.512548263 L31.653241,0.204545455 Z M5.32633472,0.225078975 L16.8252084,2.44269919 L16.9069056,2.44269919 C17.2949671,2.44269919 17.6217556,2.77123552 17.6217556,3.16137241 L17.6217556,26.0767813 C17.6217556,26.4463847 17.3358156,26.7543875 16.9886027,26.774921 L5.48972902,24.5573008 L5.40803187,24.5573008 C5.01997041,24.5573008 4.69318182,24.2287645 4.69318182,23.8386276 L4.69318182,0.923218673 C4.69318182,0.553615304 4.97912184,0.245612496 5.32633472,0.225078975 Z" id="Combined-Shape"></path>
                        </g>
                    </g>
                </g>
            </g>
        </g>
    </g>
</svg>