<svg version="1.1" xmlns="http://www.w3.org/2000/svg" width="512" height="512" viewBox="0 0 512 512">
<title></title>
<path fill="#00a3fe" d="M68.147 375.465c-37.598 0-68.146 30.667-68.146 68.038 0 37.577 30.55 67.901 68.146 67.901 37.733 0 68.247-30.324 68.247-67.901-0.001-37.371-30.512-68.038-68.247-68.038zM0.078 173.965v98.129c63.892 0 123.979 24.986 169.229 70.256 45.192 45.159 70.141 105.518 70.141 169.65h98.561c-0.001-186.41-151.641-338.035-337.931-338.035zM0.194 0v98.178c227.891 0 413.378 185.667 413.378 413.822h98.428c0-282.235-229.627-512-511.806-512z"></path>
</svg>
