<svg width="28" height="28" xmlns="http://www.w3.org/2000/svg">
	<!-- Created with Method Draw - http://github.com/duopixel/Method-Draw/ -->

	<g>
		<title>background</title>
		<rect fill="none" id="canvas_background" height="30" width="30" y="-1" x="-1"/>
		<g display="none" overflow="visible" y="0" x="0" height="100%" width="100%" id="canvasGrid">
			<rect fill="url(#gridpattern)" stroke-width="0" y="0" x="0" height="100%" width="100%"/>
		</g>
	</g>
	<g>
		<title>Layer 1</title>
		<g stroke="null" id="svg_9">
			<path stroke="null" id="svg_5" fill="#a1a1a1" d="m26.512386,13.771522c-0.170892,-6.442804 -5.489929,-11.631372 -12.092599,-11.799055c0.121814,0.380771 0.533384,1.784255 0.71841,3.92317c0.19512,-0.053285 0.399404,-0.083841 0.611712,-0.083841c1.255314,0 2.276577,0.997056 2.276577,2.221998c0,1.22469 -1.021263,2.221746 -2.276577,2.221746c-0.231515,0 -0.453969,-0.034294 -0.66431,-0.09667c-0.147596,1.202265 -0.38672,2.456552 -0.629417,3.692555c1.59099,0.29693 3.209314,0.587445 4.697178,0.695984c-0.312431,0.29395 -0.507551,0.706288 -0.507551,1.163021c0,0.892254 0.741137,1.61632 1.65622,1.61632c0.914565,0 1.65622,-0.724066 1.65622,-1.61632c0,-0.444915 -0.184508,-0.849323 -0.483841,-1.141354c3.032416,-0.136116 4.920668,-0.758108 4.94091,-0.764977l0.097068,-0.032577z"/>
			<path stroke="null" id="svg_6" fill="#a1a1a1" d="m13.048198,22.289148c-0.196156,0.053285 -0.401423,0.084851 -0.614766,0.084851c-1.256867,0 -2.277561,-0.996854 -2.277561,-2.222049c0,-1.22469 1.020694,-2.221493 2.277561,-2.221493c0.231049,0 0.453969,0.034042 0.664828,0.097175c0.147596,-1.203022 0.387238,-2.458269 0.629935,-3.695283c-1.590006,-0.296425 -3.208848,-0.587445 -4.695211,-0.697954c0.309946,-0.29395 0.504083,-0.704318 0.504083,-1.158576c0,-0.892759 -0.741706,-1.616573 -1.656737,-1.616573c-0.915083,0 -1.655754,0.723814 -1.655754,1.616573c0,0.4434 0.184042,0.845889 0.481304,1.137869c-2.947928,0.139096 -4.92217,0.758108 -4.943395,0.765027l-0.09303,0.029597c0.170892,6.444067 5.489929,11.634302 12.095135,11.801025c-0.118294,-0.381781 -0.528829,-1.819509 -0.716391,-3.92019z"/>
			<path stroke="null" id="svg_7" fill="#184d9d" d="m22.493133,15.11263c0.054617,0.190411 0.085938,0.39062 0.085938,0.597799c0,1.22565 -1.021729,2.221998 -2.277043,2.221998c-1.255832,0 -2.277561,-0.996348 -2.277561,-2.221998c0,-0.225917 0.035359,-0.443905 0.100071,-0.649114c-1.232536,-0.143995 -2.518187,-0.377791 -3.786133,-0.614567c-0.303837,1.552732 -0.602135,3.131525 -0.715407,4.583142c-0.3013,-0.303849 -0.722965,-0.49426 -1.189567,-0.49426c-0.915083,0 -1.656737,0.724066 -1.656737,1.61632c0,0.892759 0.741654,1.61536 1.656737,1.61536c0.455988,0 0.86906,-0.179047 1.168341,-0.471027c0.143609,2.875506 0.777583,4.800574 0.784623,4.822292l0.030337,0.090761c6.604688,-0.166723 11.923777,-5.355998 12.095653,-11.799055c-0.389775,0.120358 -1.827629,0.521837 -4.019253,0.702348z"/>
			<path stroke="null" id="svg_8" fill="#184d9d" d="m15.749909,6.418433c-0.455988,0 -0.868542,0.179299 -1.168859,0.46931c-0.13952,-2.95763 -0.776029,-4.799867 -0.784105,-4.820575l-0.032356,-0.0947c-6.605206,0.166723 -11.924243,5.356251 -12.095135,11.800065c0.391276,-0.116418 1.865007,-0.516938 4.020236,-0.699419c-0.054617,-0.19137 -0.086973,-0.39062 -0.086973,-0.597294c0,-1.226155 1.022298,-2.222251 2.277613,-2.222251c1.255314,0 2.277561,0.996096 2.277561,2.222251c0,0.224402 -0.035411,0.44143 -0.099087,0.646639c1.233053,0.143995 2.519222,0.377791 3.786651,0.614567c0.304355,-1.551217 0.601617,-3.129303 0.714372,-4.58092c0.300317,0.303597 0.72193,0.492997 1.190084,0.492997c0.914565,0 1.655754,-0.722803 1.655754,-1.61531c0,-0.892506 -0.741188,-1.61536 -1.655754,-1.61536z"/>
		</g>
	</g>
</svg>
