<?xml version="1.0" encoding="UTF-8"?>
<svg width="55px" height="55px" viewBox="0 0 55 55" version="1.1" xmlns="http://www.w3.org/2000/svg" xmlns:xlink="http://www.w3.org/1999/xlink">
    <!-- Generator: sketchtool 62 (101010) - https://sketch.com -->
    <title>8C5FC2BC-6C25-414C-8D7B-96D5949E2CDB</title>
    <desc>Created with sketchtool.</desc>
    <g id="Final" stroke="none" stroke-width="1" fill="none" fill-rule="evenodd">
        <g id="Techjoomla-Homepage--final" transform="translate(-987.000000, -545.000000)">
            <g id="products" transform="translate(274.000000, 488.000000)">
                <g id="product2" transform="translate(693.000000, 0.000000)">
                    <g id="icon" transform="translate(20.000000, 57.000000)">
                        <circle id="Oval" fill="#4884E2" cx="27.5" cy="27.5" r="27.5"></circle>
                        <g transform="translate(9.000000, 14.000000)" fill="#FFFFFF" fill-rule="nonzero">
                            <path d="M11,13 L11,16 C12.6568398,16 14,17.3431878 14,19 C14,20.6568722 12.6568398,22 11,22 L11,25 L27.7999979,25 L27.7999979,13 L11,13 Z M28.9999978,13 L28.9999978,25 L34.9999978,25 L34.9999978,22 C33.3431572,22 31.9999978,20.6568722 31.9999978,19 C31.9999978,17.3431878 33.3431572,16 34.9999978,16 L34.9999978,13 L28.9999978,13 Z M20.8999988,14.7999991 L22.0249986,17.5937477 L25.0999982,17.7812476 L22.7281385,19.6937527 L23.4968584,22.6000012 L20.8999988,20.987502 L18.3031391,22.6000012 L19.071859,19.6937527 L16.6999993,17.7812476 L19.7749989,17.5937477 L20.8999988,14.7999991 Z" id="Shape-Copy" transform="translate(23.000000, 19.000000) rotate(-19.000000) translate(-23.000000, -19.000000) "></path>
                            <path d="M0,-8.81653027e-14 L0,3.87755102 C2.14149388,3.87755102 3.87755102,5.61364694 3.87755102,7.7551098 C3.87755102,9.89664245 2.14149388,11.6326608 0,11.6326608 L0,15.5102118 L21.7142857,15.5102118 L21.7142857,-8.81653027e-14 L0,-8.81653027e-14 Z M23.2653061,-8.81653027e-14 L23.2653061,15.5102118 L31.0204082,15.5102118 L31.0204082,11.6326608 C28.8789143,11.6326608 27.1428571,9.89664245 27.1428571,7.7551098 C27.1428571,5.61364694 28.8789143,3.87755102 31.0204082,3.87755102 L31.0204082,-8.81653027e-14 L23.2653061,-8.81653027e-14 Z M12.7959184,2.32653061 L14.25,5.9375 L18.2244898,6.17984694 L15.1588204,8.65179347 L16.1524041,12.408171 L12.7959184,10.3239873 L9.43943265,12.408171 L10.4330163,8.65179347 L7.36734694,6.17984694 L11.3418367,5.9375 L12.7959184,2.32653061 Z" id="Shape"></path>
                        </g>
                    </g>
                </g>
            </g>
        </g>
    </g>
</svg>